<?xml version="1.0" encoding="utf-8"?>
<!-- Generator: Adobe Illustrator 24.2.1, SVG Export Plug-In . SVG Version: 6.00 Build 0)  -->
<svg version="1.1" id="Layer_1" xmlns="http://www.w3.org/2000/svg" xmlns:xlink="http://www.w3.org/1999/xlink" x="0px" y="0px"
	 viewBox="0 0 328 328" style="enable-background:new 0 0 328 328;" xml:space="preserve">
<style type="text/css">
	.st0{fill:#9C84EF;}
	.st1{fill:#F47B67;}
	.st2{fill:#45DDC0;}
</style>
<g>
	<path d="M164,4c42.7,0,82.9,16.6,113.1,46.9C307.4,81.1,324,121.3,324,164s-16.6,82.9-46.9,113.1C246.9,307.4,206.7,324,164,324
		s-82.9-16.6-113.1-46.9C20.6,246.9,4,206.7,4,164S20.6,81.1,50.9,50.9S121.3,4,164,4 M164,0C73.4,0,0,73.4,0,164s73.4,164,164,164
		s164-73.4,164-164S254.6,0,164,0L164,0z"/>
</g>
<polygon class="st0" points="68.9,150.2 133.2,279.4 282,252.6 156.5,226.4 "/>
<polygon class="st1" points="46.4,132.1 155.5,226.6 282.5,144.6 156.6,168.7 "/>
<polygon class="st2" points="23.3,123.6 160.2,169.5 246.4,45.3 139.1,115.5 "/>
</svg>
