<?xml version="1.0" encoding="utf-8"?>
<!-- Generator: Adobe Illustrator 24.2.1, SVG Export Plug-In . SVG Version: 6.00 Build 0)  -->
<svg version="1.1" id="Layer_1" xmlns="http://www.w3.org/2000/svg" xmlns:xlink="http://www.w3.org/1999/xlink" x="0px" y="0px"
	 viewBox="0 0 183.4 85.6" style="enable-background:new 0 0 183.4 85.6;" xml:space="preserve">
<style type="text/css">
	.st0{fill:none;}
	.st1{font-family:'Monda-Bold';}
	.st2{font-size:36px;}
	.st3{fill:#8C6239;}
	.st4{fill:#808080;}
	.st5{fill:#CCCCCC;}
	.st6{fill:#22B573;}
	.st7{fill:#F15A24;}
	.st8{opacity:0.6;}
	.st9{fill:#FFA94A;}
</style>
<rect x="75.4" y="35.2" class="st0" width="108" height="50.5"/>
<text transform="matrix(1 0 0 1 75.3886 61.8242)" class="st1 st2">Druon</text>
<rect x="70.1" y="-3.1" transform="matrix(-0.3484 -0.9373 0.9373 -0.3484 53.556 129.0262)" class="st3" width="3" height="98"/>
<path class="st4" d="M39.5,67.1L26.3,70L7,69.7l14.4-12.8l11.4-6.2C32,53,32,56.4,33.3,59.7c0.2,0.5,0.4,1,0.6,1.4
	c0.8,1.7,1.8,3.1,2.9,4.2C37.7,66.1,38.6,66.8,39.5,67.1z"/>
<path class="st5" d="M36.8,65.3c-0.4,0.4-1,0.8-1.7,1l-3.7,1c-0.2,0.1-0.4,0.1-0.6,0.1l-2.7,0.3c-2.2,0.3-2.9-1.6-1.1-2.9l2.2-1.5
	c0.2-0.1,0.3-0.2,0.5-0.3l3.5-1.7c0.2-0.1,0.4-0.2,0.6-0.2C34.7,62.8,35.7,64.2,36.8,65.3z"/>
<polygon class="st6" points="106.8,34.4 117.4,36.9 136.1,29.9 123.8,31.3 134,24.3 122.1,26.6 132.3,19.6 120.3,21.9 130.5,14.9 
	119.3,19.1 111.8,21.9 105.8,31.6 "/>
<g>
	<path class="st7" d="M72.3,20v39.9c0,1.7-1.4,3.1-3.1,3.1H53.5c-1.8,0-3.2-1.4-3.2-3.2V20c0-6.1,4.9-11,11-11S72.3,13.9,72.3,20z"
		/>
</g>
<g class="st8">
	<path class="st9" d="M64.7,59h0.2c2.4,0,4.3-2.5,4.3-5.5V24.1c0-3.3-1.3-6.1-3.3-7.7c-1.5-1.2-3.5,0.3-3.5,2.7v36.8
		C62.3,57.6,63.4,59,64.7,59z"/>
</g>
</svg>
