<svg data-v-423bf9ae="" xmlns="http://www.w3.org/2000/svg" viewBox="0 0 361.01990573524887 60" class="font"><!----><!----><!----><g data-v-423bf9ae="" id="f517d108-ece8-4a24-8012-1c2b9a433d3d" fill="black" transform="matrix(6.065522563149748,0,0,6.065522563149748,-2.1835872206581257,-32.75382194262479)"><path d="M5.92 9.62C5.92 9.72 5.81 10.21 5.81 10.46C5.81 11.30 5.61 11.87 5.01 12.43C4.45 12.95 3.43 13.37 2.24 13.45C2.21 13.10 2.06 8.60 2.06 7.94C2.06 7.84 2.16 7.32 2.25 6.99C3.46 7.38 4.93 7.52 5.73 8.57C5.91 8.81 5.92 9.34 5.92 9.62ZM7.57 10.71C7.57 8.34 6.43 6.16 3.05 5.70C2.55 5.63 1.69 5.40 0.78 5.40C0.67 5.40 0.63 5.46 0.60 5.50C0.49 6.09 0.36 7.20 0.36 7.29C0.36 7.41 0.67 11.28 0.67 11.40C0.67 13.51 0.41 14.31 0.41 14.56L0.41 15.06L2.95 15.06C3.07 15.06 4.09 14.78 4.44 14.69C7.31 13.90 7.57 12.46 7.57 10.71ZM13.27 8.67C13.27 8.93 13.30 9.20 12.95 9.55C12.77 9.73 12.33 9.73 12.00 9.76C11.73 9.79 11.30 9.88 11.19 9.88C11.09 9.88 10.43 9.83 10.11 9.69C9.95 9.62 9.91 8.85 9.91 8.54C9.91 8.43 10.01 7.64 10.01 7.24C10.15 7.28 10.39 7.38 10.50 7.38C10.61 7.38 11.44 7.28 11.55 7.28C12.31 7.28 13.27 7.62 13.27 8.67ZM14.84 15.19C14.70 14.53 14.18 14.13 13.82 13.20C13.48 12.36 13.55 11.84 13.01 11.12C14.17 11.05 14.74 9.02 14.74 8.09C14.74 7.97 14.74 7.73 14.73 7.62C14.66 7.04 13.26 5.89 12.63 5.82C11.73 5.71 10.01 5.59 9.91 5.59C9.91 5.59 8.76 5.60 8.58 5.87C8.62 6.17 8.60 6.62 8.58 6.86C8.55 7.45 8.48 8.19 8.48 8.29L8.48 14.69C8.48 14.80 8.58 15.02 8.62 15.16C8.81 15.11 8.88 15.12 8.97 15.12C9.10 15.12 9.63 15.20 10.04 15.25C10.04 14.70 10.14 14.15 10.05 12.14C10.04 11.90 9.94 11.42 10.08 11.31C10.53 11.35 11.09 11.06 11.35 11.37C12.01 12.10 12.95 13.87 13.08 15.05C12.98 15.33 13.79 15.29 13.96 15.29C14.07 15.29 14.66 15.27 14.84 15.19ZM23.39 5.61C22.86 5.60 22.30 5.56 21.66 5.50C21.76 5.84 21.70 6.24 21.76 6.69C21.85 7.46 21.64 8.57 21.64 8.79L21.64 11.62C21.64 12.19 21.27 13.44 20.37 13.50C20.06 13.51 19.49 13.76 19.39 13.76C18.97 13.76 18.62 13.50 18.23 13.22C18.07 13.10 17.81 12.98 17.74 12.84C17.54 12.45 17.50 11.75 17.50 11.63L17.50 9.80C17.50 9.69 17.40 9.37 17.40 9.25C17.40 9.14 17.49 8.78 17.50 8.60C17.58 6.59 17.53 5.96 17.49 5.54C16.73 5.77 16.37 5.54 15.99 5.68C15.93 5.64 15.93 5.59 15.93 5.54C15.88 5.88 15.76 8.57 15.76 8.67C15.76 8.79 15.90 10.19 15.92 10.93C15.95 11.68 15.93 12.45 16.11 13.17C16.17 13.43 16.49 13.72 16.59 13.93C17.11 14.95 18.45 15.20 19.33 15.20C20.59 15.20 19.73 15.33 21.07 14.84C23.80 13.86 23.35 10.77 23.31 8.97C23.28 7.85 23.42 6.61 23.39 5.61ZM32.23 10.49C32.23 11.68 31.00 13.61 29.46 13.61C28.57 13.61 26.98 13.03 26.21 11.66C26.17 11.59 25.72 10.74 25.72 10.53C25.72 9.74 26.88 7.48 27.85 7.45C28 7.38 28.31 7.32 28.45 7.32C28.55 7.32 29.65 7.38 30.14 7.43C30.30 7.45 30.58 7.60 30.74 7.67C31.14 7.83 31.46 8.36 31.56 8.67C31.63 8.93 31.89 9.20 32.02 9.49C32.16 9.80 32.23 10.37 32.23 10.49ZM33.82 9.94C33.82 9.27 33.78 9.14 33.40 8.22C32.89 7 31.30 6.02 30.46 5.70C30.13 5.56 29.19 5.49 29.09 5.49C28.25 5.49 27.20 6.09 26.56 6.43C25.80 6.83 25.21 7.80 24.93 8.34C24.49 9.18 24.35 9.67 24.35 10.21C24.35 10.81 24.71 12.36 24.86 12.71C25.12 13.29 25.61 13.52 26.10 14C26.22 14.11 26.42 14.15 26.50 14.25C27.29 15.09 27.87 15.16 28.53 15.16C31.65 15.16 33.82 13.29 33.82 9.94ZM43.01 5.56C42.50 5.50 41.66 5.40 41.55 5.40C41.31 5.40 41.26 5.75 41.26 5.95C41.26 6.06 41.26 6.50 41.30 9.14C41.30 9.67 41.43 10.53 41.43 10.65C41.43 11.06 41.47 11.79 41.31 12.28C40.32 11.06 39.26 9.73 38.60 8.62C38.36 8.25 37.83 7.41 37.60 7.04C37.30 6.55 37.09 5.95 36.68 5.42C36.13 5.42 35.39 5.54 35.03 5.56C35.03 6.31 35.01 7.73 35.01 7.83L35.01 9.76C35.01 9.87 35.07 11.76 35.04 12.70C35.04 13.16 34.93 14.03 34.93 14.13C34.93 14.32 35 14.94 35.17 15.12C35.62 15.08 36.18 15.23 36.48 14.98C36.57 14.91 36.60 14.77 36.60 14.69C36.60 14.32 36.54 13.94 36.57 13.65C36.58 13.55 36.65 13.44 36.65 13.34L36.65 9.72C36.65 9.41 36.44 8.37 36.61 8.30C37.55 9.16 38.01 10.40 38.65 11.23C39.09 11.80 39.70 12.31 40.11 12.89C40.56 13.52 41.06 14.62 41.31 14.98C41.38 15.09 41.65 15.12 41.75 15.12C41.86 15.12 42.46 15.02 42.83 15.01C42.87 14.94 42.94 14.80 42.92 14.73C42.71 13.34 42.80 12.26 42.97 11.35L43.01 5.56ZM45.92 14.97C45.98 14 45.92 13.24 44.97 13.24C44.27 13.24 44.02 13.65 44.02 14.21C44.02 15.11 44.46 15.19 45.08 15.19C45.32 15.19 45.75 15.19 45.92 14.97ZM49.36 13.10C49.36 12.99 49.22 9.32 49.22 9.21L49.22 7.56C49.22 7.45 49.15 7.20 49.14 7.03C49.11 6.73 49.21 6.29 49.21 6.03C49.21 5.85 49.18 5.61 49.22 5.47C48.45 5.52 48.09 5.52 47.80 5.47C47.75 5.50 47.68 5.61 47.68 5.67C47.68 6.48 47.81 7.29 47.75 8.06C47.71 8.83 47.57 9.66 47.60 10.43C47.60 10.68 47.70 11.05 47.67 11.28C47.61 11.79 47.50 12.68 47.50 12.77C47.50 12.88 47.63 13.47 47.67 13.83C47.71 14.15 47.64 14.60 47.70 14.94C48.01 15.18 48.24 15.18 48.59 15.18C48.71 15.18 49.07 15.16 49.27 15.12C49.36 14.43 49.36 13.20 49.36 13.10ZM58.28 10.49C58.28 11.68 57.05 13.61 55.51 13.61C54.63 13.61 53.03 13.03 52.26 11.66C52.22 11.59 51.77 10.74 51.77 10.53C51.77 9.74 52.93 7.48 53.90 7.45C54.05 7.38 54.36 7.32 54.50 7.32C54.60 7.32 55.71 7.38 56.20 7.43C56.35 7.45 56.63 7.60 56.80 7.67C57.19 7.83 57.51 8.36 57.61 8.67C57.68 8.93 57.95 9.20 58.07 9.49C58.21 9.80 58.28 10.37 58.28 10.49ZM59.88 9.94C59.88 9.27 59.84 9.14 59.46 8.22C58.94 7 57.36 6.02 56.52 5.70C56.18 5.56 55.24 5.49 55.15 5.49C54.31 5.49 53.26 6.09 52.61 6.43C51.86 6.83 51.27 7.80 50.99 8.34C50.54 9.18 50.40 9.67 50.40 10.21C50.40 10.81 50.76 12.36 50.92 12.71C51.17 13.29 51.66 13.52 52.15 14C52.28 14.11 52.47 14.15 52.56 14.25C53.34 15.09 53.93 15.16 54.59 15.16C57.71 15.16 59.88 13.29 59.88 9.94Z"></path></g><!----><!----></svg>