<?xml version="1.0" encoding="utf-8"?>
<!-- Generator: Adobe Illustrator 24.2.1, SVG Export Plug-In . SVG Version: 6.00 Build 0)  -->
<svg version="1.1" id="Layer_1" xmlns="http://www.w3.org/2000/svg" xmlns:xlink="http://www.w3.org/1999/xlink" x="0px" y="0px"
	 viewBox="0 0 186.24 162" style="enable-background:new 0 0 186.24 162;" xml:space="preserve">
<style type="text/css">
	.st0{fill:#FF0000;}
	.st1{fill:#FF931E;}
	.st2{fill:#F15A24;}
</style>
<path class="st0" d="M137.7,23.16c0,0,18.3,2.84,24.3,9.84s0,11,0,11s6,10,14,10s-12,10-9,13s28,9,16,18s-19,8-15,15s18,28,11,29
	s-33,7-27,8s-19,6-19,6"/>
<g>
	<path class="st1" d="M162,81c0,11.32-2.32,22.1-6.51,31.88c-5.01,11.68-12.68,21.95-22.26,30.04c-3.13,2.64-6.47,5.06-9.98,7.2
		c-1.57,0.97-3.18,1.88-4.83,2.73c-8.55,4.47-17.99,7.45-27.99,8.6c-2.89,0.34-5.82,0.52-8.8,0.54C81.42,162,81.21,162,81,162
		c-11.91,0-23.22-2.57-33.41-7.18c-5.51-2.5-10.7-5.6-15.47-9.22C12.6,130.81,0,107.38,0,81c0-16.22,4.76-31.32,12.97-43.98
		c3.26-5.03,7.06-9.68,11.32-13.86c5.27-5.17,11.24-9.62,17.77-13.2c8.1-4.45,17.04-7.56,26.52-9.02C72.63,0.32,76.78,0,81,0
		c9.55,0,18.71,1.65,27.21,4.69c5.91,2.1,11.5,4.87,16.68,8.22c5.97,3.85,11.4,8.47,16.15,13.71c7.24,7.99,12.91,17.43,16.51,27.84
		C160.44,62.77,162,71.7,162,81z"/>
</g>
<path class="st2" d="M47.59,154.82c-5.51-2.5-10.7-5.6-15.47-9.22c-1.44-34.37-10.88-76.97-19.15-108.58
	c3.26-5.03,7.06-9.68,11.32-13.86l19.87,25.49C45.88,87.05,47.02,130.49,47.59,154.82z"/>
<path class="st2" d="M81.21,96.18L44.16,48.65c-0.62-13.95-1.33-27.23-2.1-38.69c8.1-4.45,17.04-7.56,26.52-9.02
	C74.46,21.76,79.38,52.48,81.21,96.18z"/>
<path class="st2" d="M81.21,96.18l14.11,18.11c-1.71,16.21-3.35,32.2-4.89,47.16c-2.89,0.34-5.82,0.52-8.8,0.54
	C82.22,137.34,82.01,115.5,81.21,96.18z"/>
<path class="st2" d="M118.42,152.85c0.13-2.78,0.26-5.59,0.39-8.43l4.44,5.7C121.68,151.09,120.07,152,118.42,152.85z"/>
<path class="st2" d="M124.89,12.91c-1.14,38.19-4.04,87.95-6.08,131.51l-23.49-30.13c4.09-38.73,8.55-78.81,12.89-109.6
	C114.12,6.79,119.71,9.56,124.89,12.91z"/>
<path class="st2" d="M157.55,54.46c-0.51,19.51-1.26,39.67-2.06,58.42c-5.01,11.68-12.68,21.95-22.26,30.04
	c2.61-38.16,5.12-80.87,7.81-116.3C148.28,34.61,153.95,44.05,157.55,54.46z"/>
</svg>
