<?xml version="1.0" encoding="utf-8"?>
<!-- Generator: Adobe Illustrator 24.2.1, SVG Export Plug-In . SVG Version: 6.00 Build 0)  -->
<svg version="1.1"
	 id="svg8" inkscape:export-filename="E:\projects\hmm\ertu.png" inkscape:export-xdpi="101.6" inkscape:export-ydpi="101.6" inkscape:version="0.92.4 (5da689c313, 2019-01-14)" sodipodi:docname="ertu.svg" xmlns:cc="http://creativecommons.org/ns#" xmlns:dc="http://purl.org/dc/elements/1.1/" xmlns:inkscape="http://www.inkscape.org/namespaces/inkscape" xmlns:rdf="http://www.w3.org/1999/02/22-rdf-syntax-ns#" xmlns:sodipodi="http://sodipodi.sourceforge.net/DTD/sodipodi-0.dtd" xmlns:svg="http://www.w3.org/2000/svg"
	 xmlns="http://www.w3.org/2000/svg" xmlns:xlink="http://www.w3.org/1999/xlink" x="0px" y="0px" viewBox="0 0 850.4 850.4"
	 style="enable-background:new 0 0 850.4 850.4;" xml:space="preserve">
<style type="text/css">
	.st0{fill:url(#SVGID_1_);}
	.st1{fill:none;stroke:#3E3D3D;stroke-width:0.25;stroke-miterlimit:10;}
	.st2{fill:url(#path821_1_);}
	.st3{display:none;fill:none;stroke:#000000;stroke-width:0.485;stroke-miterlimit:11.3386;}
	.st4{display:none;fill:none;stroke:#000000;stroke-width:0.7568;stroke-miterlimit:11.3386;}
	.st5{opacity:0.51;fill:#282828;stroke:#3E3D3D;stroke-width:0.25;stroke-miterlimit:10;}
	.st6{fill:none;}
	.st7{fill:#FFFFFF;}
	.st8{font-family:'MVBoli';}
	.st9{font-size:110px;}
</style>
<sodipodi:namedview  bordercolor="#666666" borderopacity="1.0" id="base" inkscape:current-layer="layer1" inkscape:cx="130.51027" inkscape:cy="596.99368" inkscape:document-units="mm" inkscape:pageopacity="0.0" inkscape:pageshadow="2" inkscape:window-height="745" inkscape:window-maximized="1" inkscape:window-width="1304" inkscape:window-x="54" inkscape:window-y="-8" inkscape:zoom="0.35" pagecolor="#ffffff" showgrid="false">
	</sodipodi:namedview>
<linearGradient id="SVGID_1_" gradientUnits="userSpaceOnUse" x1="32.2941" y1="424.5579" x2="224.4572" y2="424.5579">
	<stop  offset="0" style="stop-color:#FF55FF"/>
	<stop  offset="1" style="stop-color:#00FFF0"/>
</linearGradient>
<polygon class="st0" points="224.5,351.2 51.4,372.9 32.3,420.6 53.5,464 218.4,497.9 "/>
<line class="st1" x1="54" y1="462.1" x2="224.6" y2="478.3"/>
<line class="st1" x1="57.1" y1="453.5" x2="224.6" y2="465.6"/>
<line class="st1" x1="60.2" y1="444.8" x2="225.6" y2="453.8"/>
<line class="st1" x1="63.5" y1="435.4" x2="224.6" y2="442.3"/>
<line class="st1" x1="66.1" y1="428.2" x2="224.6" y2="431.5"/>
<line class="st1" x1="53.9" y1="380" x2="224.5" y2="363.7"/>
<line class="st1" x1="56.9" y1="388.6" x2="224.5" y2="376.4"/>
<line class="st1" x1="60" y1="397.3" x2="225.5" y2="388.2"/>
<line class="st1" x1="63.3" y1="406.6" x2="224.5" y2="399.7"/>
<line class="st1" x1="65.9" y1="413.9" x2="224.5" y2="410.6"/>
<line class="st1" x1="68.3" y1="420.6" x2="224.5" y2="421.1"/>
<g id="layer1" transform="translate(0,3)" inkscape:groupmode="layer" inkscape:label="Layer 1">
	
		<linearGradient id="path821_1_" gradientUnits="userSpaceOnUse" x1="390.5059" y1="121.0473" x2="884.2168" y2="623.2218" gradientTransform="matrix(3.458470e-03 0.75 0.75 -3.458470e-03 156.3646 -29.086)">
		<stop  offset="0" style="stop-color:#FF55FF"/>
		<stop  offset="1" style="stop-color:#00FFF0"/>
	</linearGradient>
	<path id="path821" inkscape:connector-curvature="0" class="st2" d="M625.4,425.2c-0.5-115.8-94.9-209.3-210.7-208.8c0,0,0,0,0,0
		c-115.8,0.5-209.3,94.9-208.8,210.7c0,0,0,0,0,0c0.3,61.5,27.6,119.8,74.7,159.4c-7.7-14.8-11.7-31.2-11.8-47.8
		c-0.1-34.8,17-67.3,45.7-86.9c-0.3,3.6-0.4,7.2-0.5,10.8c0.3,69.3,34.9,134,92.4,172.8c3.4,0.2,6.8,0.4,10.3,0.5
		C532.4,635.4,625.9,541.1,625.4,425.2C625.4,425.2,625.4,425.2,625.4,425.2z"/>
	<ellipse id="ellipse857" class="st3" cx="373.6" cy="538.3" rx="104.8" ry="104.8"/>
	<ellipse id="ellipse859" class="st4" cx="523.7" cy="461.7" rx="209.7" ry="209.7"/>
	<ellipse id="ellipse861" class="st4" cx="415.6" cy="426.2" rx="209.7" ry="209.7"/>
</g>
<polygon class="st5" points="32.3,420.6 51.4,372.9 68.3,420.6 53.5,464 "/>
<rect x="392.8" y="228" transform="matrix(0.342 -0.9397 0.9397 0.342 -29.8477 659.7488)" class="st6" width="126.7" height="246.3"/>
<text transform="matrix(0.9323 0.3618 -0.3618 0.9323 348.251 329.0342)" class="st7 st8 st9">ER2</text>
</svg>
