<?xml version="1.0" encoding="utf-8"?>
<!-- Generator: Adobe Illustrator 24.2.1, SVG Export Plug-In . SVG Version: 6.00 Build 0)  -->
<svg version="1.1" id="Layer_1" xmlns="http://www.w3.org/2000/svg" xmlns:xlink="http://www.w3.org/1999/xlink" x="0px" y="0px"
	 viewBox="0 0 512 512" style="enable-background:new 0 0 512 512;" xml:space="preserve">
<style type="text/css">
	.st0{fill:#FAEC6E;}
	.st1{fill:#FFBB91;}
	.st2{fill:#FF9A76;}
	.st3{fill:#EDC988;}
	.st4{fill:#8C6239;}
	.st5{fill:#FFEFA0;}
	.st6{fill:#FFD57E;}
	.st7{fill:#FCA652;}
	.st8{fill:#BDDDF4;}
	.st9{fill:#5DADEC;}
	.st10{fill:#4289C1;}
	.st11{fill:#8CCAF7;}
	.st12{fill:#808080;}
	.st13{fill:#202020;}
</style>
<path d="M160.6,374.7c-0.2-0.5-0.2-1.3,0.2-1.8l35.5-67.6c0.7-1.3,2.2-1.6,3.2-1.1l67.6,35.5c1.3,0.5,1.6,2.2,1.1,3.2
	c-0.5,1.3-2.2,1.6-3.2,1.1l0,0l-65.4-34.4L165.1,375c-0.5,1.3-2.2,1.6-3.2,1.1C161.1,375.8,160.8,375.2,160.6,374.7z"/>
<g>
	<path class="st0" d="M509.6,41.1v431.2c0.2,20.9-16.6,37.7-37.3,37.7H41c-20.7,0-37.5-16.8-37.5-37.5V41.1
		C3.5,20.4,20.2,3.7,41,3.7h431.2C492.9,3.7,509.6,20.4,509.6,41.1z"/>
</g>
<path class="st1" d="M509.6,72.2v107.3H3.5v-58.1c5.4-0.6,10.8-1.1,16.1-1.6c0,0,0,0,0,0c9.8-0.9,19.7-1.7,29.5-2.2
	c17.4-0.9,34.9-1.2,52.3-1.1c56.8,0.2,113.6,4.1,170.3,1.1c74.2-3.9,148.5-20.9,222.7-41.2C499.5,75.1,504.6,73.6,509.6,72.2z"/>
<path class="st2" d="M466.5,214.7c-0.2,15.9-7.1,30.2-10.8,43.8c-3.7,13.7-4.1,26.7-10.3,35.4c-6.2,8.6-18.5,13-30.5,15.4
	c-11.9,2.3-23.8,2.5-36.9,1.3c-13-1.3-27.3-4-35.7-12.6c-8.4-8.5-11-22.7-14.7-37.8c-3.7-15-8.6-30.9-2.4-40.6
	c2.3-3.6,6.1-6.3,10.7-8.6c7.8-3.9,17.9-6.6,26.7-10.1c13.9-5.4,24.2-13,38.8-19.5c0.8-0.4,1.6-0.7,2.4-1.1h50.8
	c7.2,7.3,11.2,19.1,11.8,30.6C466.5,212.1,466.5,213.4,466.5,214.7z"/>
<path class="st3" d="M116.3,196.5c7.2,7.7,8.1,22.3,13.2,34.7c5,12.3,14,22.4,16.6,34.2c2.6,11.9-1.4,25.6-9.2,37.6
	c-7.7,12-19.5,22.3-32.9,25.9c-13.4,3.8-28.7,0.9-40-6.5S45.2,303.2,35.2,293c-9.9-10.4-22.3-19.1-21.9-28.6
	c0.5-9.5,13.7-19.6,20.3-32.5c6.5-12.8,6.2-28.4,13.2-36.2c6.8-7.9,20.8-8.1,34.7-7.8C95.3,188,109,188.8,116.3,196.5z"/>
<rect x="3.5" y="180.3" class="st4" width="506.3" height="30.6"/>
<path class="st5" d="M233.1,485.7c0.2,8.1-0.4,16.4-1.8,24.3H41c-20.7,0-37.5-16.8-37.5-37.5v-91.4c8.6-4,17.5-7.8,25.8-12
	c23.6-12.1,42.9-27.4,61.6-26.7c18.7,0.9,36.9,17.8,57.7,31.2c20.5,13.3,43.4,22.9,59.3,40.7C223.7,432,232.5,457.9,233.1,485.7z"/>
<path class="st6" d="M509.6,413v59.3c0.2,20.9-16.6,37.7-37.3,37.7H307.1c-1.2-13.5-0.6-26.6-0.1-38.8c1.1-21.6,2-40.4,2.5-67
	c0.5-26.7,0.5-60.9,16.2-69c15.5-8.1,46.8,9.9,76.8,11.7c30.1,1.8,59.1-12.6,73.9-4.1c15,8.5,15.9,39.8,31,66.5
	C508.1,410.5,508.9,411.8,509.6,413z"/>
<path class="st7" d="M279.6,264c13.5,9.8,25.1,21.2,26.6,34.4c1.5,13.2-7.1,28.1-10,43.5c-2.8,15.3,0.3,31.2-3.9,46.5
	c-4.2,15.4-15.8,30.2-30.4,34.6c-14.6,4.5-32.4-1.7-44.9-11.8c-12.6-10-19.9-24-33.2-35.1c-13.3-11-32.6-19.3-40.1-32.9
	c-7.5-13.6-3.4-32.5,4.5-49.6c7.7-17.2,19.3-32.8,34.5-41.8s34.2-11.6,51.2-8.7S266.2,254.1,279.6,264z"/>
<g>
	<path class="st8" d="M472.4,462.3l-5.5,0.2l-6.3,8.6l9.3-0.3L472.4,462.3z"/>
	<path class="st9" d="M494.1,470l-6.8-8.2l-5.5,0.2l3,8.2L494.1,470z"/>
	<path class="st10" d="M484.7,470.3l9.3-0.3l-16.1,20L484.7,470.3z"/>
	<path class="st11" d="M469.9,470.7l-9.3,0.3l17.3,19L469.9,470.7z M472.4,462.3l-2.5,8.5l14.9-0.4l-3-8.2L472.4,462.3z"/>
	<path class="st9" d="M477.9,490.1l-8-19.4l14.9-0.4L477.9,490.1z"/>
</g>
<path class="st12" d="M286.2,243.2h-59.3c-9.9,0-18-8-18-18v-59.3c0-9.9,8-18,18-18h59.3c9.9,0,18,8,18,18v59.3
	C304.2,235.1,296.1,243.2,286.2,243.2z"/>
<path class="st13" d="M262.7,195.5l3.9,28.7h-20l3.9-28.7c-4.3-2.2-7.2-6.7-7.2-11.8c0-7.3,5.9-13.3,13.3-13.3
	c7.3,0,13.3,5.9,13.3,13.3C269.9,188.9,267,193.3,262.7,195.5z"/>
</svg>
