<?xml version="1.0" encoding="utf-8"?>
<!-- Generator: Adobe Illustrator 24.2.1, SVG Export Plug-In . SVG Version: 6.00 Build 0)  -->
<svg version="1.1" id="Layer_1" xmlns="http://www.w3.org/2000/svg" xmlns:xlink="http://www.w3.org/1999/xlink" x="0px" y="0px"
	 viewBox="0 0 300 200" style="enable-background:new 0 0 300 200;" xml:space="preserve">
<style type="text/css">
	.st0{fill:#FF9A76;}
	.st1{fill:#709FB0;}
	.st2{fill:#519872;}
	.st3{fill:#EA5455;}
	.st4{fill:#FF0066;}
	.st5{fill:#ff5722;}
	.st6{fill:none;}
	.st7{fill:#FFFFFF;}
</style>
<g>
	<path class="st0" d="M243.2,65.4l-2,32.4l-1.7,27.8l-0.9,13.9l-0.1,1.8c-0.3,5-4.6,8.7-9.6,8.4l-73.3-4.6l-79.4-5
		c-1.3-0.1-2.5-0.4-3.6-1c-3-1.6-5-4.9-4.8-8.5l0.3-4.3l1.8-28.1l2.6-41.7l0.1-1.8c0.3-5,4.6-8.7,9.6-8.4l73.3,4.6l79.4,5
		c1.3,0.1,2.5,0.4,3.6,1C241.5,58.5,243.4,61.8,243.2,65.4z"/>
</g>
<g>
	<path class="st1" d="M243.9,140c0,0.7-0.5,1.2-1.1,1.3l-4.2,0.3l-82.9,5.6l-81.1,5.5c-0.7,0-1.2-0.5-1.3-1.1l-0.7-10.4l-0.7-9.8
		l-1.8-27.2l-0.3-3.9l-0.6-8.4l-1.9-28.3L67.1,60c0-0.6,0.5-1.2,1.1-1.3l4.2-0.3l33.2-2.2l49.7-3.4l32.5-2.2l48.6-3.3
		c0.7,0,1.2,0.5,1.3,1.1l0.7,10.4l2.6,38.4l0.2,2.5l2,30.3L243.9,140z"/>
</g>
<path class="st2" d="M195.2,56c5.6,0.4,8.2,8.7,8.2,16.1c0.1,7.4-2.3,13.8-7,17.5c-4.7,3.7-11.7,4.7-13.2,9.7
	c-1.5,5,2.5,13.9,1.6,15.9c-0.8,2-6.6-3-13.2-1.4c-6.6,1.6-14.1,9.6-15.5,7.9c-1.3-1.7,3.5-13.2,0.1-19.7
	c-3.4-6.5-15.2-8.1-19.1-11.9c-3.9-3.8-0.1-9.9,4.9-13.8c4.9-4,10.9-5.8,16.1-6.4c5.3-0.5,9.9,0.3,16.4-3.2
	C181,63.3,189.6,55.6,195.2,56z"/>
<path class="st3" d="M243.9,140c0,0.7-0.5,1.2-1.1,1.3l-4.2,0.3l-82.9,5.6l-81.1,5.5c-0.7,0-1.2-0.5-1.3-1.1l-0.7-10.4l-0.7-9.8
	c1.6,0.8,3.3,1,5,0.1c6.3-3.2,12.6-20.7,18.9-28.2c6.3-7.5,12.6-5.5,18.9-2.2c6.3,3.2,12.6,7.7,18.9,12c6.3,4.3,12.6,8.8,18.9,5.4
	c6.3-3.2,12.6-14.2,18.9-16.3c6.3-2.2,12.6,4.3,18.9,10.9c6.3,6.5,12.6,13,18.9,14.1c6.3,1.2,12.6-3.3,18.9-3.3
	c4.2,0,8.3,1.9,11.6,3.9c1.5,0.9,2.8,1.8,3.8,2.4L243.9,140z"/>
<path class="st4" d="M241,97.3c-3.8,2-11.5-4.9-19.3-8.9c-7.9-4-15.8-5.1-23.4-10.2c-7.5-5.1-14.6-14.4-13.2-22
	c0.4-2,1.3-3.8,2.7-5.5l48.6-3.3c0.7,0,1.2,0.5,1.3,1.1l0.7,10.4L241,97.3z"/>
<path class="st5" d="M119,95.1c-3.8,2.2-11.8,0.6-17,2.9c-5.2,2.2-7.8,8.2-11.4,10c-3.6,1.8-8.2-0.8-14.4-2.4c-2-0.5-4.2-1-6.1-1.5
	l-0.3-3.9l-0.6-8.4c3-3.3,6.2-6.9,6.9-10.3c1.3-6.3-6.1-11.9-8.8-18.1L67.1,60c0-0.6,0.5-1.2,1.1-1.3l4.2-0.3l33.2-2.2
	c-1.3,5-4.4,12.6-3.1,17.2c1.7,6,10.9,6.7,15.5,10S122.9,92.9,119,95.1z"/>
<rect x="92.9" y="69.7" class="st6" width="4.7" height="12.2"/>
<g>
	<g>
		<path class="st7" d="M116.8,93.7c-1.9,0-3.4-0.4-4.4-1.2c-1-0.8-1.7-1.9-2.1-3.2c-0.4-1.3-0.6-2.8-0.6-4.4V72.6
			c0-1.7,0.2-3.2,0.6-4.5c0.4-1.3,1.1-2.3,2.2-3.1c1-0.8,2.5-1.1,4.3-1.1c1.7,0,3,0.3,4,1c1,0.7,1.6,1.6,2.1,2.9
			c0.4,1.2,0.6,2.7,0.6,4.3v1.5h-1.9v-1.5c0-1.4-0.1-2.6-0.4-3.5c-0.3-1-0.7-1.7-1.4-2.3c-0.7-0.5-1.7-0.8-3-0.8
			c-1.4,0-2.5,0.3-3.2,0.9c-0.7,0.6-1.2,1.4-1.5,2.4c-0.3,1-0.4,2.2-0.4,3.6v12.9c0,1.4,0.1,2.7,0.4,3.7c0.3,1,0.8,1.8,1.5,2.4
			c0.7,0.6,1.8,0.8,3.1,0.8c1.3,0,2.3-0.3,3-0.8c0.7-0.6,1.2-1.3,1.4-2.3c0.3-1,0.4-2.2,0.4-3.5v-1.8h1.9v1.4c0,1.7-0.2,3.1-0.6,4.4
			c-0.4,1.3-1.1,2.3-2,3C119.9,93.4,118.6,93.7,116.8,93.7z"/>
		<path class="st7" d="M132.1,93.7c-1.4,0-2.4-0.3-3.2-0.9s-1.3-1.5-1.6-2.7c-0.3-1.2-0.5-2.6-0.5-4.4v-5.6c0-1.7,0.1-3.2,0.5-4.4
			c0.3-1.2,0.8-2.1,1.6-2.7c0.8-0.6,1.8-0.9,3.2-0.9c1.4,0,2.5,0.3,3.2,0.9c0.8,0.6,1.3,1.5,1.6,2.6c0.3,1.2,0.4,2.6,0.4,4.4v5.6
			c0,1.7-0.1,3.2-0.4,4.4c-0.3,1.2-0.8,2.1-1.6,2.7C134.6,93.4,133.5,93.7,132.1,93.7z M132.1,92.2c1,0,1.8-0.3,2.2-0.8
			c0.5-0.5,0.8-1.3,0.9-2.2c0.1-1,0.2-2.1,0.2-3.4v-5.8c0-1.3-0.1-2.5-0.2-3.4c-0.1-0.9-0.4-1.7-0.9-2.2c-0.5-0.5-1.2-0.8-2.2-0.8
			s-1.7,0.3-2.2,0.8c-0.5,0.5-0.8,1.2-0.9,2.2c-0.1,0.9-0.2,2.1-0.2,3.4v5.8c0,1.3,0.1,2.5,0.2,3.4c0.1,1,0.4,1.7,0.9,2.2
			C130.4,92,131.1,92.2,132.1,92.2z"/>
		<path class="st7" d="M141.1,93.3V72.5h1.8v2.2c0.7-0.8,1.4-1.4,2.3-1.9c0.8-0.4,1.7-0.7,2.6-0.7c0.7,0,1.4,0.2,2,0.6
			s1,1.1,1.3,2.2c0.7-0.9,1.5-1.6,2.3-2.1c0.9-0.5,1.8-0.7,2.7-0.7c0.6,0,1.1,0.1,1.7,0.4c0.5,0.3,1,0.7,1.3,1.4s0.5,1.7,0.5,2.9
			v16.5h-1.8V76.8c0-1.3-0.2-2.2-0.6-2.7c-0.4-0.4-1-0.6-1.6-0.6c-0.7,0-1.5,0.2-2.2,0.7c-0.7,0.4-1.4,1-2.1,1.8
			c0,0.1,0,0.3,0.1,0.4c0,0.2,0,0.3,0,0.5v16.5h-1.8V76.8c0-1.3-0.2-2.2-0.6-2.7c-0.4-0.4-1-0.6-1.6-0.6c-0.7,0-1.5,0.2-2.2,0.7
			c-0.7,0.4-1.4,1-2.1,1.7v17.4H141.1z"/>
		<path class="st7" d="M163.8,69.8v-3.3h1.9v3.3H163.8z M163.8,93.3V72.5h1.9v20.8H163.8z"/>
		<path class="st7" d="M170.3,93.3V72.5h1.9v2.2c0.6-0.8,1.4-1.4,2.2-1.9c0.8-0.5,1.7-0.7,2.7-0.7c0.6,0,1.2,0.1,1.7,0.4
			c0.5,0.3,0.9,0.8,1.2,1.4c0.3,0.7,0.4,1.5,0.4,2.6v16.6h-1.9V77c0-1.3-0.2-2.1-0.6-2.6c-0.4-0.5-0.9-0.7-1.6-0.7
			c-0.7,0-1.4,0.2-2.1,0.6c-0.7,0.4-1.4,1-2,1.7v17.4H170.3z"/>
		<path class="st7" d="M189.6,100.4c-1.4,0-2.7-0.1-3.7-0.4c-1-0.3-1.8-0.7-2.3-1.2c-0.5-0.6-0.8-1.2-0.8-2.1c0-0.7,0.2-1.4,0.6-2
			c0.4-0.6,0.8-1.2,1.4-1.7c0.6-0.5,1.1-0.9,1.7-1.2c-0.9-0.2-1.5-0.5-1.9-0.9c-0.4-0.3-0.6-0.8-0.6-1.4c0-0.7,0.2-1.3,0.7-1.9
			c0.5-0.6,1.1-1.2,1.9-1.9c-1-0.7-1.7-1.7-2.1-2.8c-0.4-1.1-0.6-2.3-0.6-3.6c0-1.2,0.2-2.3,0.6-3.4c0.4-1.1,1-2,1.9-2.7
			c0.9-0.7,2-1.1,3.3-1.1c1.3,0,2.3,0.3,3,0.9s1.3,1.2,1.6,1.9c0.2-0.5,0.6-0.9,1.2-1.4c0.5-0.5,1.1-0.8,1.7-1l0.5-0.2l0.5,1.4
			c-0.4,0.1-0.8,0.3-1.3,0.5c-0.4,0.2-0.8,0.5-1.2,0.7c-0.4,0.3-0.7,0.6-0.9,0.9c0.2,0.5,0.4,1.1,0.5,1.8c0.1,0.7,0.2,1.3,0.2,1.7
			c0,1.4-0.2,2.6-0.6,3.7c-0.4,1.1-1,2-1.8,2.6s-1.9,1-3.3,1c-0.4,0-0.8,0-1.2-0.1c-0.4-0.1-0.8-0.2-1-0.3c-0.5,0.5-0.9,0.9-1.3,1.4
			c-0.4,0.5-0.6,1-0.6,1.4c0,0.4,0.1,0.7,0.4,0.9c0.3,0.2,0.7,0.3,1.3,0.5l3.4,0.6c1.7,0.3,3,0.8,4,1.5c1,0.7,1.5,1.8,1.5,3.1
			c0,1.1-0.3,2-0.9,2.6c-0.6,0.7-1.4,1.2-2.4,1.5C191.9,100.2,190.8,100.4,189.6,100.4z M189.6,98.8c1.4,0,2.6-0.2,3.6-0.7
			c1-0.5,1.5-1.2,1.5-2.3c0-0.5-0.1-1-0.3-1.4c-0.2-0.4-0.7-0.8-1.3-1.1c-0.6-0.3-1.6-0.6-2.9-0.8l-2.3-0.4
			c-0.4,0.2-0.9,0.6-1.4,0.9c-0.5,0.4-1,0.8-1.3,1.3c-0.4,0.5-0.6,1.1-0.6,1.8c0,0.9,0.4,1.6,1.3,2C186.7,98.6,188,98.8,189.6,98.8z
			 M189.8,85.3c0.9,0,1.6-0.2,2.1-0.6c0.5-0.4,0.9-0.9,1.2-1.5c0.3-0.6,0.4-1.3,0.5-1.9c0.1-0.7,0.1-1.3,0.1-1.9
			c0-0.6-0.1-1.2-0.2-1.8c-0.1-0.7-0.3-1.3-0.6-1.9c-0.3-0.6-0.7-1.1-1.2-1.5c-0.5-0.4-1.2-0.6-2-0.6c-0.8,0-1.5,0.2-2.1,0.6
			c-0.5,0.4-0.9,0.9-1.2,1.5c-0.3,0.6-0.5,1.3-0.6,1.9c-0.1,0.6-0.2,1.2-0.2,1.7c0,0.6,0,1.2,0.1,1.9c0.1,0.7,0.3,1.3,0.6,2
			s0.7,1.1,1.2,1.5S188.9,85.3,189.8,85.3z"/>
	</g>
</g>
<g>
	<g>
		<path class="st7" d="M135,127.6c-1.3,0-2.4-0.3-3.3-0.8c-0.9-0.5-1.5-1.3-2-2.3c-0.4-1-0.7-2.1-0.8-3.4l1.5-0.5
			c0.1,1.1,0.4,2.1,0.7,2.9c0.3,0.8,0.8,1.5,1.4,2c0.6,0.5,1.5,0.7,2.6,0.7c1.2,0,2.2-0.3,2.9-0.9c0.7-0.6,1.1-1.7,1.1-3.1
			c0-1.1-0.3-2.1-0.9-3s-1.4-1.8-2.4-2.8l-4.6-4.6c-0.8-0.8-1.3-1.6-1.7-2.4c-0.4-0.8-0.5-1.6-0.5-2.4c0-1.7,0.5-2.9,1.5-3.8
			s2.4-1.3,4-1.3c0.8,0,1.6,0.1,2.3,0.3s1.3,0.6,1.8,1.1c0.5,0.5,0.9,1.1,1.2,1.9c0.3,0.8,0.5,1.8,0.6,3l-1.4,0.3
			c-0.1-1.2-0.3-2.2-0.6-2.9s-0.8-1.4-1.4-1.8c-0.6-0.4-1.4-0.6-2.4-0.6c-1.1,0-2.1,0.3-2.9,0.9c-0.8,0.6-1.1,1.5-1.1,2.8
			c0,0.6,0.1,1.3,0.4,1.9c0.3,0.6,0.7,1.3,1.4,2l4.5,4.5c1,1,1.9,2.1,2.6,3.2c0.7,1.1,1.1,2.4,1.1,3.7c0,1.3-0.2,2.3-0.7,3.1
			c-0.5,0.8-1.1,1.4-2,1.8C137.1,127.4,136.1,127.6,135,127.6z"/>
		<path class="st7" d="M147.6,127.6c-1.2,0-2.1-0.3-2.7-0.8c-0.7-0.5-1.1-1.3-1.4-2.3c-0.3-1-0.4-2.3-0.4-3.8v-4.8
			c0-1.5,0.1-2.7,0.4-3.8c0.3-1,0.7-1.8,1.4-2.3c0.7-0.5,1.6-0.8,2.7-0.8c1.2,0,2.1,0.3,2.8,0.8c0.7,0.5,1.1,1.3,1.4,2.3
			c0.3,1,0.4,2.3,0.4,3.8v4.8c0,1.5-0.1,2.7-0.4,3.8c-0.3,1-0.7,1.8-1.4,2.3C149.7,127.3,148.8,127.6,147.6,127.6z M147.6,126.3
			c0.9,0,1.5-0.2,1.9-0.7c0.4-0.4,0.7-1.1,0.8-1.9c0.1-0.8,0.2-1.8,0.2-2.9v-5c0-1.2-0.1-2.1-0.2-3s-0.4-1.4-0.8-1.9
			c-0.4-0.4-1.1-0.7-1.9-0.7c-0.9,0-1.5,0.2-1.9,0.7c-0.4,0.4-0.7,1.1-0.8,1.9s-0.2,1.8-0.2,3v5c0,1.1,0.1,2.1,0.2,2.9
			c0.1,0.8,0.4,1.5,0.8,1.9C146.1,126.1,146.7,126.3,147.6,126.3z"/>
		<path class="st7" d="M159.5,127.6c-1.2,0-2.1-0.3-2.7-0.8c-0.7-0.5-1.1-1.3-1.4-2.3c-0.3-1-0.4-2.3-0.4-3.8v-4.8
			c0-1.5,0.1-2.7,0.4-3.8c0.3-1,0.7-1.8,1.4-2.3c0.7-0.5,1.6-0.8,2.7-0.8c1.2,0,2.1,0.3,2.8,0.8c0.7,0.5,1.1,1.3,1.4,2.3
			c0.3,1,0.4,2.3,0.4,3.8v4.8c0,1.5-0.1,2.7-0.4,3.8c-0.3,1-0.7,1.8-1.4,2.3C161.6,127.3,160.7,127.6,159.5,127.6z M159.5,126.3
			c0.9,0,1.5-0.2,1.9-0.7c0.4-0.4,0.7-1.1,0.8-1.9c0.1-0.8,0.2-1.8,0.2-2.9v-5c0-1.2-0.1-2.1-0.2-3s-0.4-1.4-0.8-1.9
			c-0.4-0.4-1.1-0.7-1.9-0.7c-0.9,0-1.5,0.2-1.9,0.7c-0.4,0.4-0.7,1.1-0.8,1.9c-0.1,0.8-0.2,1.8-0.2,3v5c0,1.1,0.1,2.1,0.2,2.9
			c0.1,0.8,0.4,1.5,0.8,1.9C157.9,126.1,158.6,126.3,159.5,126.3z"/>
		<path class="st7" d="M167.2,127.3v-17.9h1.6v1.9c0.6-0.7,1.2-1.2,1.9-1.6c0.7-0.4,1.5-0.6,2.3-0.6c0.5,0,1,0.1,1.4,0.4
			c0.4,0.3,0.8,0.7,1,1.2s0.4,1.3,0.4,2.3v14.3h-1.6v-14.1c0-1.1-0.2-1.8-0.5-2.2c-0.3-0.4-0.8-0.6-1.4-0.6c-0.6,0-1.2,0.2-1.8,0.5
			c-0.6,0.4-1.2,0.8-1.7,1.4v14.9H167.2z"/>
		<path class="st7" d="M179.6,127.3v-3.2h1.8v3.2H179.6z"/>
		<path class="st7" d="M185.1,127.3v-3.2h1.8v3.2H185.1z"/>
		<path class="st7" d="M190.5,127.3v-3.2h1.8v3.2H190.5z"/>
	</g>
</g>
</svg>
