<?xml version="1.0" encoding="utf-8"?>
<!-- Generator: Adobe Illustrator 24.2.1, SVG Export Plug-In . SVG Version: 6.00 Build 0)  -->
<svg version="1.1" id="Layer_1" xmlns="http://www.w3.org/2000/svg" xmlns:xlink="http://www.w3.org/1999/xlink" x="0px" y="0px"
	 viewBox="0 0 281 281" style="enable-background:new 0 0 281 281;" xml:space="preserve">
<style type="text/css">
	.st0{fill:#DCDCDC;}
	.st1{fill:none;stroke:#8C8C8C;stroke-miterlimit:10;}
	.st2{fill:none;stroke:#8C8C8C;stroke-width:0.5;stroke-miterlimit:10;}
</style>
<rect x="0.5" y="0.3" class="st0" width="280" height="280.5"/>
<polyline class="st1" points="0,40 40,40 80,40 120,40 160,40 200,40 240,40 280,40 "/>
<polyline class="st1" points="0,80 40,80 80,80 120,80 160,80 200,80 240,80 280,80 "/>
<polyline class="st1" points="0,120 40,120 80,120 120,120 160,120 200,120 240,120 280,120 "/>
<polyline class="st1" points="0,160 40,160 80,160 120,160 160,160 200,160 240,160 280,160 "/>
<polyline class="st1" points="280,200 240,200 200,200 160,200 120,200 80,200 40,200 0,200 "/>
<polyline class="st1" points="0,240 40,240 80,240 120,240 160,240 200,240 240,240 280,240 "/>
<polyline class="st2" points="0.5,280.5 40.5,280.5 80.5,280.5 120.5,280.5 160.5,280.5 200.5,280.5 240.5,280.5 280.5,280.5 "/>
<polyline class="st1" points="240,0 240,40 240,80 240,120 240,160 240,200 240,240 240,280 "/>
<polyline class="st2" points="280.5,0 280.5,40 280.5,80 280.5,120 280.5,160 280.5,200 280.5,240 280.5,280 "/>
<polyline class="st1" points="200,280 200,240 200,200 200,160 200,120 200,80 200,40 200,0 "/>
<polyline class="st1" points="160,280 160,240 160,200 160,160 160,120 160,80 160,40 160,0 "/>
<polyline class="st1" points="120,0 120,40 120,80 120,120 120,160 120,200 120,240 120,280 "/>
<polyline class="st1" points="80,0 80,40 80,80 80,120 80,160 80,200 80,240 80,280 "/>
<polyline class="st1" points="40,280 40,240 40,200 40,160 40,120 40,80 40,40 40,0 "/>
</svg>
