<?xml version="1.0" encoding="utf-8"?>
<!-- Generator: Adobe Illustrator 24.2.1, SVG Export Plug-In . SVG Version: 6.00 Build 0)  -->
<svg version="1.1" id="Layer_1" xmlns="http://www.w3.org/2000/svg" xmlns:xlink="http://www.w3.org/1999/xlink" x="0px" y="0px"
	 viewBox="0 0 434.13 288.93" style="enable-background:new 0 0 434.13 288.93;" xml:space="preserve">
<style type="text/css">
	.st0{fill:#FCEE21;}
	.st1{fill:#FF931E;}
</style>
<path class="st0" d="M47.06,39.97c15-20,21,31,51,15s43-75,66-48s47,55,66,40s63-54,72-10s65,35,75,30s53-11,41,37s25,43,14,118
	s-34,73-50,60s-59-43-118-16s-10-8-108-19c-98-11,12,45-82,31s-61-28-54-51s-18-35-20-50s46-23,33-50s-36-65-16-70
	S47.06,39.97,47.06,39.97z"/>
<path class="st1" d="M139.56,123.47c-6-52-84-63-107-34s44,21,44,21s5,77-10,101s50,0,50,0S145.56,175.47,139.56,123.47z
	 M109.56,202.47l-33,11c0,0,23-28,21-83s-40-32-40-32l-17-3c0,0,25.94-28.27,74,0C148.56,115.47,109.56,202.47,109.56,202.47z"/>
<path class="st1" d="M167.08,150.51c0,0,0.77,42.52-9.28,52.56c-10.05,10.05,12.37,3.09,12.37,3.09s8.5-24.74,6.96-55.66
	s3.09,10.05,14.69,8.5c9.81-1.31,10.05-13.14,14.69-10.05s0-9.28,0-9.28s-9.24,9-14.69,8.5c-8.5-0.77-6.96-13.91-10.05-16.23
	s-10.82-8.5-13.14,0C166.3,140.46,167.08,150.51,167.08,150.51z"/>
<path class="st1" d="M286.84,202.64c0,0-3.08,6.93-8.47,10.01s-13.09-6.93-13.09-6.93l-0.3-10.66c-1.05,1.42-1.97,3.12-3.55,3.73
	c-14.86,5.69-21.86-3.31-26.33-6c-18.13-10.89-9.86-63.31-9.86-63.31l8.47,1.54c0,0-5.39,58.53,16.17,58.53
	c10.27,0,13.55-13.61,14.17-27.87c0.01-0.02,0.01-0.05,0.01-0.07c0.68-15.68-1.86-32.13-1.86-32.13h8.47c0,0,2.42,14.29,2.3,30.22
	h0.01l1.54,46.02l0.77-2.31l3.85-3.85L286.84,202.64z"/>
<path class="st1" d="M290.05,161.6c0,0.02,0,0.05-0.01,0.07L290.05,161.6L290.05,161.6z"/>
<path class="st1" d="M318.72,130.47c-16.11,0-29.16,17.69-29.16,39.5s13.05,39.5,29.16,39.5s29.16-17.69,29.16-39.5
	S334.83,130.47,318.72,130.47z M318.72,201.2c-11.31,0-20.47-13.67-20.47-30.54c0-16.86,9.17-30.53,20.47-30.53
	s20.47,13.67,20.47,30.53C339.19,187.53,330.03,201.2,318.72,201.2z"/>
<path class="st1" d="M390.06,222.61c-6.9,0-12.5,7.58-12.5,16.93s5.6,16.93,12.5,16.93c6.9,0,12.5-7.58,12.5-16.93
	S396.97,222.61,390.06,222.61z M390.06,252.93c-4.85,0-8.78-5.86-8.78-13.09c0-7.23,3.93-13.09,8.78-13.09
	c4.85,0,8.78,5.86,8.78,13.09C398.84,247.07,394.91,252.93,390.06,252.93z"/>
<path class="st1" d="M410.46,216.72l-6.45-1.49c0,0,19.36-58.09,5.46-68.52c-13.9-10.43-40.97-3.56-40.97-3.56
	c3.88,31.93-4.71,70.59-4.71,70.59s-16.88,8.94-9.93-2.98c6.95-11.92,1.99-71.5,1.99-71.5s6.75-25.74,11.31-4.47
	c3.64-7.02,41.97-4.78,45.96,4.65l7.28,9.25C425.85,164.58,410.46,216.72,410.46,216.72z"/>
<rect x="338.56" y="237.47" class="st1" width="12" height="12"/>
<rect x="360.56" y="233.47" class="st1" width="11" height="22"/>
<rect x="360.56" y="222.47" class="st1" width="12" height="7"/>
</svg>
