<?xml version="1.0" encoding="utf-8"?>
<!-- Generator: Adobe Illustrator 24.2.1, SVG Export Plug-In . SVG Version: 6.00 Build 0)  -->
<svg version="1.1" id="OBJECTS" xmlns="http://www.w3.org/2000/svg" xmlns:xlink="http://www.w3.org/1999/xlink" x="0px" y="0px"
	 viewBox="0 0 800 442" style="enable-background:new 0 0 800 442;" xml:space="preserve">
<style type="text/css">
	.st0{fill:#388E3C;}
	.st1{fill:#2E7D32;}
	.st2{fill:#1B5E20;}
	.st3{fill:#434343;}
	.st4{fill:#FF7043;}
	.st5{fill:#F5F5F5;}
	.st6{fill:#3E2723;}
	.st7{fill:#80CBC4;}
	.st8{fill:#B2DFDB;}
	.st9{opacity:0.2;fill:#212121;enable-background:new    ;}
	.st10{opacity:0.4;fill:#212121;enable-background:new    ;}
	.st11{fill:#E0E0E0;}
	.st12{fill:#BDBDBD;}
	.st13{fill:#FF490F;}
	.st14{fill:#EEEEEE;}
	.st15{fill:#D32E2E;}
	.st16{fill:#E53A35;}
	.st17{fill:#FAFBFB;}
	.st18{fill:#FFE082;}
	.st19{fill:#00897B;}
	.st20{fill:#212121;}
</style>
<path class="st0" d="M593.7,306.8c-23.8,0-43,19.2-43,43v56.4h86.1v-56.4C636.7,326,617.5,306.8,593.7,306.8z"/>
<circle class="st1" cx="646" cy="370.7" r="30.1"/>
<ellipse transform="matrix(0.9329 -0.3601 0.3601 0.9329 -126.2049 84.1124)" class="st2" cx="162.7" cy="380.8" rx="20" ry="20"/>
<ellipse transform="matrix(0.2263 -0.9741 0.9741 0.2263 -189.9616 479.7732)" class="st1" cx="207" cy="359.5" rx="41.3" ry="41.3"/>
<rect x="128.6" y="389.8" class="st3" width="565" height="23"/>
<g>
	<rect x="223.3" y="153.9" class="st4" width="375.7" height="235.8"/>
	<path class="st5" d="M600,375.5h-35.9v14.3h40v-10.1C604.1,377.3,602.3,375.5,600,375.5z"/>
	<g>
		<rect x="458.6" y="219.2" class="st6" width="105.6" height="170.6"/>
		<rect x="464.9" y="225.5" class="st7" width="93" height="158"/>
		<g>
			<polygon class="st8" points="557.8,264.6 557.8,274.2 509,225.5 518.7,225.5 			"/>
			<polygon class="st8" points="557.8,359.8 557.8,369.5 464.9,276.5 464.9,266.8 			"/>
			<polygon class="st8" points="557.8,279.4 557.8,298.8 484.5,225.5 504,225.5 			"/>
		</g>
		<rect x="464.9" y="225.5" class="st9" width="93" height="3.3"/>
		<polygon class="st10" points="458.6,351.7 458.6,389.8 496.6,389.8 		"/>
		<g>
			<path class="st11" d="M480.2,293.4c0,2.2-1.8,4-4,4s-4-1.8-4-4c0-2.2,1.8-4,4-4S480.2,291.2,480.2,293.4z"/>
			<path class="st11" d="M480.2,322.1c0,2.2-1.8,4-4,4s-4-1.8-4-4s1.8-4,4-4S480.2,319.9,480.2,322.1z"/>
			<path class="st5" d="M476.1,290.2c-1.2,0-2.3,1-2.3,2.3v30.4c0,1.2,1,2.3,2.3,2.3s2.3-1,2.3-2.3v-30.4
				C478.4,291.3,477.4,290.2,476.1,290.2z"/>
		</g>
	</g>
	<path class="st5" d="M458.6,375.5H222.1c-2.3,0-4.1,1.8-4.1,4.1v10.1h240.5V375.5z"/>
	<rect x="222.8" y="139" class="st12" width="376.6" height="6.9"/>
	<rect x="222.8" y="125.2" class="st12" width="376.6" height="6.9"/>
	<rect x="227.4" y="132.1" class="st4" width="367.4" height="6.9"/>
	<rect x="227.4" y="132.1" class="st10" width="367.4" height="3.5"/>
	<g>
		<rect x="531.1" y="205.2" class="st13" width="21.1" height="8.2"/>
		<rect x="557.7" y="205.2" class="st13" width="21.1" height="8.2"/>
		<rect x="544.5" y="191.6" class="st13" width="21.1" height="8.2"/>
	</g>
	<g>
		<rect x="568.3" y="320.1" class="st13" width="21.1" height="8.2"/>
		<rect x="581.6" y="306.5" class="st13" width="21.1" height="8.2"/>
	</g>
	<g>
		<rect x="258" y="205.2" class="st13" width="21.1" height="8.2"/>
		<rect x="284.6" y="205.2" class="st13" width="21.1" height="8.2"/>
		<rect x="271.4" y="191.6" class="st13" width="21.1" height="8.2"/>
		<rect x="298" y="191.6" class="st13" width="21.1" height="8.2"/>
	</g>
	<g>
		<rect x="321.9" y="360.8" class="st13" width="21.1" height="8.2"/>
		<rect x="400.5" y="347.1" class="st13" width="21.1" height="8.2"/>
		<rect x="295.3" y="360.8" class="st13" width="21.1" height="8.2"/>
		<rect x="308.5" y="347.1" class="st13" width="21.1" height="8.2"/>
		<rect x="281.9" y="347.1" class="st13" width="21.1" height="8.2"/>
	</g>
	<g>
		<rect x="219.7" y="276.1" class="st13" width="15.2" height="8.2"/>
		<rect x="229.4" y="262.5" class="st13" width="15.2" height="8.2"/>
	</g>
	<g>
		<path class="st5" d="M564.1,243.3c-0.9,0-1.6,0.7-1.6,1.6v12c0,0.9,0.7,1.6,1.6,1.6c0.9,0,1.6-0.7,1.6-1.6v-12
			C565.7,244,565,243.3,564.1,243.3z"/>
		<path class="st5" d="M564.1,350.5c-0.9,0-1.6,0.7-1.6,1.6v12c0,0.9,0.7,1.6,1.6,1.6c0.9,0,1.6-0.7,1.6-1.6v-12
			C565.7,351.2,565,350.5,564.1,350.5z"/>
	</g>
	<rect x="395.8" y="205.2" class="st13" width="10.5" height="8.2"/>
	<rect x="407.8" y="191.6" class="st13" width="10.5" height="8.2"/>
	<rect x="379.6" y="191.6" class="st13" width="21.1" height="8.2"/>
	<rect x="237.8" y="346.6" class="st13" width="10.5" height="8.2"/>
	<rect x="219.9" y="332.9" class="st13" width="21.1" height="8.2"/>
	<rect x="571.6" y="266.3" class="st13" width="15.2" height="8.2"/>
	<rect x="431.6" y="240.6" class="st13" width="10.7" height="8.2"/>
	<rect x="437" y="252.4" class="st13" width="10.7" height="8.2"/>
	<g>
		<g>
			<path class="st11" d="M257.3,175.6c0,12.2,9.8,22,22,22l0,0c12.2,0,22-9.8,22-22v-13.7h-43.9V175.6z"/>
			<path class="st11" d="M345.1,175.6c0,12.2,9.8,22,22,22l0,0c12.2,0,22-9.8,22-22v-13.7h-43.9V175.6z"/>
			<path class="st11" d="M433,175.6c0,12.2,9.8,22,22,22l0,0c12.2,0,22-9.8,22-22v-13.7H433V175.6z"/>
			<path class="st11" d="M520.9,161.9v13.7c0,12.2,9.8,22,22,22l0,0c12.2,0,22-9.8,22-22v-13.7H520.9z"/>
		</g>
		<g>
			<polygon class="st14" points="257.3,161.9 301.2,161.9 306.5,145.9 264.7,145.9 			"/>
			<polygon class="st14" points="345.1,161.9 389.1,161.9 390.2,145.9 348.3,145.9 			"/>
			<polygon class="st14" points="432,145.9 433,161.9 477,161.9 473.9,145.9 			"/>
			<polygon class="st14" points="557.5,145.9 515.7,145.9 520.9,161.9 564.8,161.9 			"/>
		</g>
		<g>
			<path class="st15" d="M213.3,175.6c0,12.2,9.8,22,22,22l0,0c12.2,0,22-9.8,22-22v-13.7h-43.9L213.3,175.6L213.3,175.6z"/>
			<path class="st15" d="M301.2,175.6c0,12.2,9.8,22,22,22l0,0c12.2,0,22-9.8,22-22v-13.7h-43.9V175.6z"/>
			<path class="st15" d="M389.1,175.6c0,12.2,9.8,22,22,22s22-9.8,22-22v-13.7h-43.9V175.6z"/>
			<path class="st15" d="M477,175.6c0,12.2,9.8,22,22,22l0,0c12.2,0,22-9.8,22-22v-13.7H477L477,175.6L477,175.6z"/>
			<path class="st15" d="M564.8,161.9v13.7c0,12.2,9.8,22,22,22l0,0c12.2,0,22-9.8,22-22v-13.7H564.8z"/>
		</g>
		<g>
			<polygon class="st16" points="213.3,161.9 257.3,161.9 264.7,145.9 222.8,145.9 			"/>
			<polygon class="st16" points="301.2,161.9 345.1,161.9 348.3,145.9 306.5,145.9 			"/>
			<polygon class="st16" points="390.2,145.9 389.1,161.9 433,161.9 432,145.9 			"/>
			<polygon class="st16" points="473.9,145.9 477,161.9 520.9,161.9 515.7,145.9 			"/>
			<polygon class="st16" points="599.4,145.9 557.5,145.9 564.8,161.9 608.8,161.9 			"/>
		</g>
	</g>
	<rect x="227.3" y="219.2" class="st13" width="11.2" height="8.2"/>
	<g>
		<g>
			<rect x="252.8" y="220.9" class="st6" width="178.8" height="108.5"/>
			<rect x="259.1" y="227.2" class="st7" width="166.3" height="96"/>
			<g>
				<polygon class="st8" points="425.3,255.5 425.3,270.4 382.2,227.2 397.1,227.2 				"/>
				<polygon class="st8" points="425.3,274.5 425.3,281.9 370.7,227.2 378.1,227.2 				"/>
				<polygon class="st8" points="425.3,308.3 425.3,323.1 410.5,323.1 314.6,227.2 344.2,227.2 				"/>
			</g>
			<rect x="259.1" y="227.2" class="st9" width="166.3" height="3.3"/>
		</g>
		<rect x="243.5" y="329.4" class="st17" width="197.4" height="20.4"/>
		<path class="st1" d="M428.7,317.4H255.7c-4.5,0-8.3,3.7-8.3,8.3v3.7H437v-3.7C437,321.2,433.3,317.4,428.7,317.4z"/>
		<rect x="243.5" y="329.4" class="st14" width="197.4" height="4.4"/>
		<path class="st2" d="M437,325.3H247.5c0,0.2,0,0.3,0,0.4v3.7h189.5v-3.7C437,325.6,437,325.5,437,325.3z"/>
		<polygon class="st10" points="458.6,347.1 458.6,389.8 283.5,389.8 243.5,349.8 440.9,349.8 440.9,329.4 		"/>
	</g>
</g>
<path class="st6" d="M605.1,36.6h-388c-6,0-11,4.9-11,11v59.9c0,6,4.9,11,11,11h388.1c6,0,11-4.9,11-11V47.6
	C616.1,41.5,611.2,36.6,605.1,36.6z"/>
<path class="st18" d="M602.6,43H219.5c-3.9,0-7.1,3.1-7.1,7.1V105c0,3.9,3.1,7.1,7.1,7.1h383.1c3.9,0,7.1-3.1,7.1-7.1V50.1
	C609.7,46.2,606.6,43,602.6,43z"/>
<path class="st9" d="M609.7,50.1v0.8H212.4v-0.8c0-3.9,3.1-7.1,7.1-7.1h383.1C606.6,43,609.7,46.2,609.7,50.1z"/>
<g>
	<g>
		<path class="st19" d="M348.3,101c-2.7,0-5-0.5-6.8-1.6c-1.8-1-3.2-2.6-4.1-4.6c-1-2-1.5-4.5-1.6-7.5l7.1-1.4
			c0.1,1.7,0.3,3.3,0.6,4.6c0.3,1.3,0.9,2.4,1.7,3.1c0.7,0.7,1.7,1,2.9,1c1.3,0,2.3-0.4,2.9-1.2c0.5-0.8,0.9-1.8,0.9-3.1
			c0-2-0.4-3.6-1.3-4.9c-0.9-1.3-2.1-2.5-3.6-3.8l-5.7-5.1c-1.6-1.4-2.9-2.9-3.8-4.6c-1-1.7-1.4-3.8-1.4-6.3c0-3.6,1-6.4,3.1-8.3
			c2.1-1.9,5-2.9,8.6-2.9c2.1,0,3.9,0.3,5.3,1c1.4,0.6,2.5,1.6,3.4,2.7c0.9,1.1,1.5,2.4,1.8,3.9c0.4,1.5,0.7,3.1,0.8,4.6l-7.1,1.2
			c-0.1-1.4-0.3-2.7-0.4-3.8c-0.3-1.1-0.7-2-1.3-2.6c-0.6-0.6-1.5-1-2.7-1s-2.2,0.4-2.8,1.2c-0.6,0.8-1,1.8-1,3c0,1.6,0.3,2.8,1,3.8
			c0.6,1,1.6,2,2.7,3.1l5.7,5c1.8,1.6,3.5,3.4,4.8,5.5c1.3,2.1,2,4.6,2,7.6c0,2.2-0.4,4.1-1.4,5.8c-1,1.7-2.3,3-3.9,3.9
			C352.6,100.5,350.5,101,348.3,101z"/>
		<path class="st19" d="M374.7,100.4V55.1h8.2v19h9.3v-19h8.3v45.3h-8.3V79.9h-9.3v20.5H374.7z"/>
		<path class="st19" d="M429.8,101c-3.2,0-5.8-0.6-7.7-1.7c-1.9-1.2-3.2-2.9-4.1-5.2c-0.9-2.3-1.2-4.9-1.2-8v-17
			c0-3.1,0.4-5.7,1.2-7.9c0.8-2.2,2.2-3.8,4.1-5c1.9-1.1,4.5-1.7,7.7-1.7c3.3,0,5.9,0.6,7.8,1.7c1.9,1.1,3.2,2.8,4.1,5
			c0.9,2.2,1.2,4.8,1.2,7.9v17.1c0,3.1-0.4,5.7-1.2,7.9c-0.9,2.2-2.2,3.9-4.1,5.2C435.7,100.4,433.1,101,429.8,101z M429.8,94.9
			c1.4,0,2.4-0.3,3.1-0.9c0.6-0.6,1-1.4,1.3-2.4s0.3-2.2,0.3-3.4V67.3c0-1.2-0.1-2.4-0.3-3.4c-0.3-1-0.7-1.8-1.3-2.4
			c-0.6-0.6-1.7-0.9-3.1-0.9c-1.3,0-2.3,0.3-3,0.9s-1.1,1.4-1.3,2.4c-0.2,1-0.3,2.2-0.3,3.4v20.9c0,1.2,0.1,2.4,0.3,3.4
			c0.2,1,0.6,1.8,1.3,2.4C427.4,94.6,428.5,94.9,429.8,94.9z"/>
		<path class="st19" d="M459.1,100.4V55.1h13.3c2.7,0,4.9,0.5,6.6,1.5c1.7,1,3,2.4,3.8,4.4s1.2,4.3,1.2,7c0,3-0.5,5.3-1.5,7.2
			c-1,1.8-2.4,3.1-4.2,3.9c-1.8,0.8-3.9,1.2-6.4,1.2h-4.5v20.1H459.1z M467.4,74.4h3.1c1.5,0,2.6-0.2,3.5-0.6
			c0.9-0.4,1.4-1.1,1.7-2.1c0.3-1,0.4-2.2,0.4-3.8s-0.1-3-0.3-4c-0.3-1-0.8-1.7-1.6-2.3c-0.8-0.5-2.1-0.7-3.8-0.7h-3.1L467.4,74.4
			L467.4,74.4z"/>
	</g>
</g>
<g>
	<rect x="250" y="118.4" class="st20" width="6.6" height="6.7"/>
	<rect x="565.5" y="118.4" class="st20" width="6.6" height="6.7"/>
</g>
</svg>
