<?xml version="1.0" encoding="utf-8"?>
<!-- Generator: Adobe Illustrator 24.2.1, SVG Export Plug-In . SVG Version: 6.00 Build 0)  -->
<svg version="1.1" id="OBJECTS" xmlns="http://www.w3.org/2000/svg" xmlns:xlink="http://www.w3.org/1999/xlink" x="0px" y="0px"
	 viewBox="0 0 800 800" style="enable-background:new 0 0 800 800;" xml:space="preserve">
<style type="text/css">
	.st0{fill:#388E3C;}
	.st1{fill:#2E7D32;}
	.st2{fill:#1B5E20;}
	.st3{fill:#434343;}
	.st4{fill:#FF7043;}
	.st5{fill:#F5F5F5;}
	.st6{fill:#3E2723;}
	.st7{fill:#80CBC4;}
	.st8{fill:#B2DFDB;}
	.st9{opacity:0.2;fill:#212121;}
	.st10{opacity:0.4;fill:#212121;}
	.st11{fill:#E0E0E0;}
	.st12{fill:#BDBDBD;}
	.st13{fill:#FF490F;}
	.st14{fill:#EEEEEE;}
	.st15{fill:#D32E2E;}
	.st16{fill:#E53A35;}
	.st17{fill:#FAFBFB;}
	.st18{fill:#FFE082;}
	.st19{fill:#00897B;}
	.st20{fill:#212121;}
</style>
<path class="st0" d="M608.8,493.9c-27.2,0-49.2,22-49.2,49.2v64.5H658v-64.5C658,515.9,636,493.9,608.8,493.9z"/>
<circle class="st1" cx="668.6" cy="567" r="34.4"/>
<ellipse transform="matrix(0.9204 -0.3909 0.3909 0.9204 -216.9372 91.3652)" class="st2" cx="116" cy="578.6" rx="22.9" ry="22.9"/>
<ellipse transform="matrix(0.2263 -0.9741 0.9741 0.2263 -410.8536 591.1286)" class="st1" cx="166.7" cy="554.2" rx="47.2" ry="47.2"/>
<rect x="77" y="588.8" class="st3" width="646" height="26.3"/>
<g>
	<rect x="185.3" y="319.2" class="st4" width="429.5" height="269.6"/>
	<path class="st5" d="M616,572.5h-41v16.3h45.7v-11.6C620.7,574.6,618.6,572.5,616,572.5z"/>
	<g>
		<rect x="454.3" y="393.8" class="st6" width="120.7" height="195"/>
		<rect x="461.5" y="401" class="st7" width="106.3" height="180.6"/>
		<g>
			<polygon class="st8" points="567.8,445.7 567.8,456.7 512,401 523.1,401 			"/>
			<polygon class="st8" points="567.8,554.6 567.8,565.6 461.5,459.3 461.5,448.2 			"/>
			<polygon class="st8" points="567.8,462.6 567.8,484.8 484,401 506.2,401 			"/>
		</g>
		<rect x="461.5" y="401" class="st9" width="106.3" height="3.8"/>
		<polygon class="st10" points="454.3,545.3 454.3,588.8 497.8,588.8 		"/>
		<g>
			<path class="st11" d="M479,478.6c0,2.5-2.1,4.6-4.6,4.6c-2.5,0-4.6-2.1-4.6-4.6c0-2.5,2.1-4.6,4.6-4.6
				C476.9,474,479,476.1,479,478.6z"/>
			<path class="st11" d="M479,511.5c0,2.5-2.1,4.6-4.6,4.6c-2.5,0-4.6-2.1-4.6-4.6c0-2.5,2.1-4.6,4.6-4.6
				C476.9,506.9,479,508.9,479,511.5z"/>
			<path class="st5" d="M474.4,475c-1.4,0-2.6,1.2-2.6,2.6v34.8c0,1.4,1.2,2.6,2.6,2.6s2.6-1.2,2.6-2.6v-34.8
				C477,476.2,475.8,475,474.4,475z"/>
		</g>
	</g>
	<path class="st5" d="M454.3,572.5H184c-2.6,0-4.7,2.1-4.7,4.7v11.6h275V572.5z"/>
	<rect x="184.7" y="302.1" class="st12" width="430.6" height="7.9"/>
	<rect x="184.7" y="286.3" class="st12" width="430.6" height="7.9"/>
	<rect x="190" y="294.2" class="st4" width="420" height="7.9"/>
	<rect x="190" y="294.2" class="st10" width="420" height="4"/>
	<g>
		<rect x="537.2" y="377.8" class="st13" width="24.1" height="9.4"/>
		<rect x="567.6" y="377.8" class="st13" width="24.1" height="9.4"/>
		<rect x="552.5" y="362.2" class="st13" width="24.1" height="9.4"/>
	</g>
	<g>
		<rect x="579.7" y="509.2" class="st13" width="24.1" height="9.4"/>
		<rect x="595" y="493.6" class="st13" width="24.1" height="9.4"/>
	</g>
	<g>
		<rect x="225" y="377.8" class="st13" width="24.1" height="9.4"/>
		<rect x="255.4" y="377.8" class="st13" width="24.1" height="9.4"/>
		<rect x="240.3" y="362.2" class="st13" width="24.1" height="9.4"/>
		<rect x="270.7" y="362.2" class="st13" width="24.1" height="9.4"/>
	</g>
	<g>
		
			<rect x="298.1" y="555.7" transform="matrix(-1 -1.224647e-16 1.224647e-16 -1 620.3051 1120.7469)" class="st13" width="24.1" height="9.4"/>
		
			<rect x="388" y="540.1" transform="matrix(-1 -1.224647e-16 1.224647e-16 -1 800 1089.5513)" class="st13" width="24.1" height="9.4"/>
		
			<rect x="267.7" y="555.7" transform="matrix(-1 -1.224647e-16 1.224647e-16 -1 559.4638 1120.7469)" class="st13" width="24.1" height="9.4"/>
		
			<rect x="282.8" y="540.1" transform="matrix(-1 -1.224647e-16 1.224647e-16 -1 589.6863 1089.5513)" class="st13" width="24.1" height="9.4"/>
		
			<rect x="252.4" y="540.1" transform="matrix(-1 -1.224647e-16 1.224647e-16 -1 528.8451 1089.5513)" class="st13" width="24.1" height="9.4"/>
	</g>
	<g>
		<rect x="181.2" y="458.9" class="st13" width="17.4" height="9.4"/>
		<rect x="192.3" y="443.3" class="st13" width="17.4" height="9.4"/>
	</g>
	<g>
		<path class="st5" d="M575,421.3c-1,0-1.8,0.8-1.8,1.8v13.7c0,1,0.8,1.8,1.8,1.8c1,0,1.8-0.8,1.8-1.8v-13.7
			C576.8,422.1,576,421.3,575,421.3z"/>
		<path class="st5" d="M575,543.9c-1,0-1.8,0.8-1.8,1.8v13.7c0,1,0.8,1.8,1.8,1.8c1,0,1.8-0.8,1.8-1.8v-13.7
			C576.8,544.7,576,543.9,575,543.9z"/>
	</g>
	<rect x="382.5" y="377.8" class="st13" width="12" height="9.4"/>
	<rect x="396.3" y="362.2" class="st13" width="12" height="9.4"/>
	<rect x="364" y="362.2" class="st13" width="24.1" height="9.4"/>
	<rect x="201.9" y="539.4" class="st13" width="12" height="9.4"/>
	<rect x="181.4" y="523.8" class="st13" width="24.1" height="9.4"/>
	<rect x="583.5" y="447.6" class="st13" width="17.4" height="9.4"/>
	<rect x="423.5" y="418.3" class="st13" width="12.2" height="9.4"/>
	<rect x="429.6" y="431.8" class="st13" width="12.2" height="9.4"/>
	<g>
		<g>
			<path class="st11" d="M224.2,344c0,13.9,11.2,25.1,25.1,25.1l0,0c13.9,0,25.1-11.2,25.1-25.1v-15.7h-50.2V344z"/>
			<path class="st11" d="M324.6,344c0,13.9,11.2,25.1,25.1,25.1h0c13.9,0,25.1-11.2,25.1-25.1v-15.7h-50.2V344z"/>
			<path class="st11" d="M425.1,344c0,13.9,11.2,25.1,25.1,25.1h0c13.9,0,25.1-11.2,25.1-25.1v-15.7h-50.2V344z"/>
			<path class="st11" d="M525.6,328.3V344c0,13.9,11.2,25.1,25.1,25.1l0,0c13.9,0,25.1-11.2,25.1-25.1v-15.7H525.6z"/>
		</g>
		<g>
			<polygon class="st14" points="224.2,328.3 274.4,328.3 280.4,310 232.6,310 			"/>
			<polygon class="st14" points="324.6,328.3 374.9,328.3 376.1,310 328.2,310 			"/>
			<polygon class="st14" points="423.9,310 425.1,328.3 475.4,328.3 471.8,310 			"/>
			<polygon class="st14" points="567.4,310 519.6,310 525.6,328.3 575.8,328.3 			"/>
		</g>
		<g>
			<path class="st15" d="M173.9,344c0,13.9,11.2,25.1,25.1,25.1h0c13.9,0,25.1-11.2,25.1-25.1v-15.7h-50.2V344z"/>
			<path class="st15" d="M274.4,344c0,13.9,11.2,25.1,25.1,25.1l0,0c13.9,0,25.1-11.2,25.1-25.1v-15.7h-50.2V344z"/>
			<path class="st15" d="M374.9,344c0,13.9,11.2,25.1,25.1,25.1c13.9,0,25.1-11.2,25.1-25.1v-15.7h-50.2V344z"/>
			<path class="st15" d="M475.4,344c0,13.9,11.2,25.1,25.1,25.1l0,0c13.9,0,25.1-11.2,25.1-25.1v-15.7h-50.2V344z"/>
			<path class="st15" d="M575.8,328.3V344c0,13.9,11.2,25.1,25.1,25.1h0c13.9,0,25.1-11.2,25.1-25.1v-15.7H575.8z"/>
		</g>
		<g>
			<polygon class="st16" points="173.9,328.3 224.2,328.3 232.6,310 184.7,310 			"/>
			<polygon class="st16" points="274.4,328.3 324.6,328.3 328.2,310 280.4,310 			"/>
			<polygon class="st16" points="376.1,310 374.9,328.3 425.1,328.3 423.9,310 			"/>
			<polygon class="st16" points="471.8,310 475.4,328.3 525.6,328.3 519.6,310 			"/>
			<polygon class="st16" points="615.3,310 567.4,310 575.8,328.3 626.1,328.3 			"/>
		</g>
	</g>
	<rect x="189.9" y="393.8" class="st13" width="12.8" height="9.4"/>
	<g>
		<g>
			<rect x="219.1" y="395.8" class="st6" width="204.4" height="124"/>
			<rect x="226.3" y="403" class="st7" width="190.1" height="109.7"/>
			<g>
				<polygon class="st8" points="416.3,435.3 416.3,452.3 367,403 384,403 				"/>
				<polygon class="st8" points="416.3,457 416.3,465.5 353.8,403 362.3,403 				"/>
				<polygon class="st8" points="416.3,495.7 416.3,512.6 399.4,512.6 289.7,403 323.6,403 				"/>
			</g>
			<rect x="226.3" y="403" class="st9" width="190.1" height="3.8"/>
		</g>
		<rect x="208.4" y="519.8" class="st17" width="225.7" height="23.3"/>
		<path class="st1" d="M420.1,506.1H222.4c-5.2,0-9.5,4.2-9.5,9.5v4.2h216.7v-4.2C429.6,510.4,425.4,506.1,420.1,506.1z"/>
		<rect x="208.4" y="519.8" class="st14" width="225.7" height="5"/>
		<path class="st2" d="M429.6,515.1H213c0,0.2,0,0.3,0,0.5v4.2h216.7v-4.2C429.6,515.4,429.6,515.3,429.6,515.1z"/>
		<polygon class="st10" points="454.3,540 454.3,588.8 254.1,588.8 208.4,543.1 434.1,543.1 434.1,519.8 		"/>
	</g>
</g>
<path class="st6" d="M621.8,185H178.2c-6.9,0-12.6,5.6-12.6,12.6v68.5c0,6.9,5.6,12.6,12.6,12.6h443.7c6.9,0,12.6-5.6,12.6-12.6
	v-68.5C634.4,190.6,628.8,185,621.8,185z"/>
<path class="st18" d="M619,192.4H181c-4.5,0-8.1,3.6-8.1,8.1v62.7c0,4.5,3.6,8.1,8.1,8.1H619c4.5,0,8.1-3.6,8.1-8.1v-62.7
	C627.1,196,623.5,192.4,619,192.4z"/>
<path class="st9" d="M627.1,200.5v0.9H172.9v-0.9c0-4.5,3.6-8.1,8.1-8.1H619C623.5,192.4,627.1,196,627.1,200.5z"/>
<g>
	<g>
		<path class="st19" d="M328.2,258.7c-3.1,0-5.7-0.6-7.8-1.8c-2.1-1.2-3.7-3-4.7-5.3c-1.1-2.3-1.7-5.2-1.8-8.6l8.1-1.6
			c0.1,2,0.3,3.8,0.7,5.3c0.4,1.5,1,2.7,1.9,3.6c0.8,0.8,1.9,1.2,3.3,1.2c1.5,0,2.6-0.5,3.3-1.4c0.6-0.9,1-2.1,1-3.5
			c0-2.3-0.5-4.1-1.5-5.6c-1-1.5-2.4-2.9-4.1-4.4l-6.5-5.8c-1.8-1.6-3.3-3.3-4.4-5.3c-1.1-1.9-1.6-4.3-1.6-7.2
			c0-4.1,1.2-7.3,3.6-9.5c2.4-2.2,5.7-3.3,9.8-3.3c2.4,0,4.5,0.4,6.1,1.1c1.6,0.7,2.9,1.8,3.9,3.1c1,1.3,1.7,2.8,2.1,4.5
			c0.5,1.7,0.8,3.5,0.9,5.3l-8.1,1.4c-0.1-1.6-0.3-3.1-0.5-4.4c-0.3-1.3-0.8-2.3-1.5-3c-0.7-0.7-1.7-1.1-3.1-1.1
			c-1.4,0-2.5,0.5-3.2,1.4c-0.7,0.9-1.1,2.1-1.1,3.4c0,1.8,0.4,3.2,1.1,4.3c0.7,1.1,1.8,2.3,3.1,3.5l6.5,5.7c2.1,1.8,4,3.9,5.5,6.3
			c1.5,2.4,2.3,5.3,2.3,8.7c0,2.5-0.5,4.7-1.6,6.6c-1.1,1.9-2.6,3.4-4.5,4.5C333.1,258.1,330.8,258.7,328.2,258.7z"/>
		<path class="st19" d="M358.4,258v-51.8h9.4v21.7h10.6v-21.7h9.5V258h-9.5v-23.4h-10.6V258H358.4z"/>
		<path class="st19" d="M421.4,258.7c-3.7,0-6.6-0.7-8.8-2c-2.2-1.4-3.7-3.3-4.7-5.9s-1.4-5.6-1.4-9.1v-19.4c0-3.5,0.5-6.5,1.4-9
			s2.5-4.4,4.7-5.7c2.2-1.3,5.1-2,8.8-2c3.8,0,6.7,0.7,8.9,2c2.2,1.3,3.7,3.2,4.7,5.7c1,2.5,1.4,5.5,1.4,9v19.5c0,3.5-0.5,6.5-1.4,9
			c-1,2.5-2.5,4.5-4.7,5.9C428.1,258,425.2,258.7,421.4,258.7z M421.4,251.7c1.6,0,2.7-0.3,3.5-1c0.7-0.7,1.2-1.6,1.5-2.8
			c0.3-1.2,0.4-2.5,0.4-3.9v-23.9c0-1.4-0.1-2.8-0.4-3.9c-0.3-1.2-0.8-2.1-1.5-2.7c-0.7-0.7-1.9-1-3.5-1c-1.5,0-2.6,0.3-3.4,1
			c-0.8,0.7-1.3,1.6-1.5,2.7s-0.4,2.5-0.4,3.9v23.9c0,1.4,0.1,2.7,0.4,3.9c0.2,1.2,0.7,2.1,1.5,2.8
			C418.7,251.3,419.9,251.7,421.4,251.7z"/>
		<path class="st19" d="M454.9,258v-51.8h15.2c3.1,0,5.6,0.6,7.6,1.7c1.9,1.2,3.4,2.8,4.3,5c0.9,2.2,1.4,4.9,1.4,8
			c0,3.4-0.6,6.1-1.7,8.2c-1.2,2.1-2.8,3.6-4.8,4.5c-2.1,0.9-4.5,1.4-7.3,1.4h-5.1v23H454.9z M464.4,228.3h3.6c1.7,0,3-0.2,4-0.7
			c1-0.5,1.6-1.3,2-2.4c0.4-1.1,0.5-2.5,0.5-4.4c0-1.9-0.1-3.4-0.4-4.6c-0.3-1.2-0.9-2-1.8-2.6c-0.9-0.6-2.4-0.8-4.3-0.8h-3.6V228.3
			z"/>
	</g>
</g>
<g>
	<rect x="215.9" y="278.6" class="st20" width="7.5" height="7.7"/>
	<rect x="576.6" y="278.6" class="st20" width="7.5" height="7.7"/>
</g>
</svg>
