<svg xmlns="http://www.w3.org/2000/svg" viewBox="0 0 200 200">
  <path
    id="wave"
    fill="#ffefa0"
    fill-opacity="1"

      transform="translate(100 100)"


    d="M19,-31.1C27.7,-27.9,39.9,-29,49.1,-24.5C58.4,-20,64.8,-10,63.6,-0.6C62.5,8.7,53.9,17.4,48.1,27.9C42.3,38.3,39.2,50.5,31.7,62.8C24.1,75.1,12.1,87.4,-1.5,90C-15,92.5,-30,85.2,-35.9,72C-41.9,58.8,-38.8,39.7,-42.8,26.7C-46.9,13.8,-58,6.9,-62,-2.3C-66.1,-11.6,-63.1,-23.1,-59.3,-36.5C-55.5,-49.8,-50.9,-65,-40.9,-67.3C-30.8,-69.7,-15.4,-59.3,-5.1,-50.4C5.2,-41.6,10.3,-34.2,19,-31.1Z"></path>
  <style>
    <!-- #wave {

       animation: w 15s linear infinite;
       animation-timig-function:linear;
    }
    @keyframes w {
from{
transform:translate(50px,50px);
d:path("M19,-31.1C27.7,-27.9,39.9,-29,49.1,-24.5C58.4,-20,64.8,-10,63.6,-0.6C62.5,8.7,53.9,17.4,48.1,27.9C42.3,38.3,39.2,50.5,31.7,62.8C24.1,75.1,12.1,87.4,-1.5,90C-15,92.5,-30,85.2,-35.9,72C-41.9,58.8,-38.8,39.7,-42.8,26.7C-46.9,13.8,-58,6.9,-62,-2.3C-66.1,-11.6,-63.1,-23.1,-59.3,-36.5C-55.5,-49.8,-50.9,-65,-40.9,-67.3C-30.8,-69.7,-15.4,-59.3,-5.1,-50.4C5.2,-41.6,10.3,-34.2,19,-31.1Z")
}
      33%{
      d:path("M33.6,-65.2C40.5,-54.1,41.2,-39.1,46.6,-27.6C52,-16.1,62.1,-8.1,59.3,-1.6C56.5,4.8,40.8,9.6,31.9,15.2C23.1,20.7,21.1,27,17,33.5C12.8,40,6.4,46.7,-5.1,55.4C-16.5,64.2,-33,75,-43.9,72.4C-54.8,69.8,-60.1,53.8,-56.3,39.5C-52.4,25.2,-39.3,12.6,-34.5,2.8C-29.8,-7.1,-33.3,-14.2,-35.4,-25.4C-37.5,-36.6,-38.2,-52,-32.1,-63.6C-25.9,-75.2,-13,-83,0.2,-83.2C13.3,-83.5,26.6,-76.3,33.6,-65.2Z");

      }
      50%{
      transform:translate(150px,150px);
      }
      66%{
      d:path("M22.5,-34.4C30.3,-34.5,38.5,-30.7,43.8,-24.3C49.1,-18,51.5,-9,56.4,2.8C61.2,14.6,68.6,29.3,63.5,35.9C58.3,42.5,40.6,41,27.9,46.6C15.2,52.2,7.6,64.8,-2.9,69.8C-13.4,74.8,-26.8,72.2,-39.1,66.4C-51.4,60.6,-62.5,51.6,-71.6,40C-80.7,28.4,-87.7,14.2,-82.7,2.9C-77.7,-8.4,-60.7,-16.8,-51.5,-28.3C-42.4,-39.8,-41.1,-54.4,-33.8,-54.6C-26.6,-54.8,-13.3,-40.5,-3,-35.4C7.4,-30.3,14.7,-34.2,22.5,-34.4Z")
      }
      to{
transform:translate(50px,50px);
      d:path("M19,-31.1C27.7,-27.9,39.9,-29,49.1,-24.5C58.4,-20,64.8,-10,63.6,-0.6C62.5,8.7,53.9,17.4,48.1,27.9C42.3,38.3,39.2,50.5,31.7,62.8C24.1,75.1,12.1,87.4,-1.5,90C-15,92.5,-30,85.2,-35.9,72C-41.9,58.8,-38.8,39.7,-42.8,26.7C-46.9,13.8,-58,6.9,-62,-2.3C-66.1,-11.6,-63.1,-23.1,-59.3,-36.5C-55.5,-49.8,-50.9,-65,-40.9,-67.3C-30.8,-69.7,-15.4,-59.3,-5.1,-50.4C5.2,-41.6,10.3,-34.2,19,-31.1Z")
      }
    } -->
  </style>
</svg>
