<?xml version="1.0" encoding="utf-8"?>
<!-- Generator: Adobe Illustrator 24.2.1, SVG Export Plug-In . SVG Version: 6.00 Build 0)  -->
<svg version="1.1"
	 id="svg8" xmlns:cc="http://creativecommons.org/ns#" xmlns:dc="http://purl.org/dc/elements/1.1/" xmlns:inkscape="http://www.inkscape.org/namespaces/inkscape" xmlns:rdf="http://www.w3.org/1999/02/22-rdf-syntax-ns#" xmlns:sodipodi="http://sodipodi.sourceforge.net/DTD/sodipodi-0.dtd" xmlns:svg="http://www.w3.org/2000/svg"
	 xmlns="http://www.w3.org/2000/svg" xmlns:xlink="http://www.w3.org/1999/xlink" x="0px" y="0px" viewBox="0 0 512 512"
	 style="enable-background:new 0 0 512 512;" xml:space="preserve">
<style type="text/css">
	.st0{fill:#7B3AAA;stroke:#656565;stroke-width:2.0613;stroke-miterlimit:11.3386;}
	.st1{stroke:#656565;stroke-width:2.0613;stroke-miterlimit:11.3386;}
	.st2{filter:url(#filter2990);}
	.st3{fill:#64A1CC;}
	.st4{fill:#929292;fill-opacity:0.8185;}
	.st5{stroke:#5D5D5D;stroke-width:2.1311;stroke-miterlimit:11.3386;}
	.st6{fill:#7B3AAA;}
	.st7{fill:#262626;}
	.st8{fill:none;stroke:#000000;stroke-width:1.469;stroke-miterlimit:11.3386;stroke-opacity:0.5137;}
	.st9{filter:url(#filter2968);}
	.st10{fill:none;stroke:#D2D2D2;stroke-width:1.469;stroke-miterlimit:4.8339;}
	.st11{stroke:#656565;stroke-width:2.8011;stroke-miterlimit:11.3386;}
</style>
<filter  height="1.2394916" id="filter2990" inkscape:collect="always" style="color-interpolation-filters:sRGB" width="1.1176542" x="-0.058827075" y="-0.11974578">
	<feGaussianBlur  id="feGaussianBlur2992" inkscape:collect="always" stdDeviation="3.9593675"></feGaussianBlur>
</filter>
<filter  height="1.2161411" id="filter2968" inkscape:collect="always" style="color-interpolation-filters:sRGB" width="1.1061829" x="-0.053091435" y="-0.10807057">
	<feGaussianBlur  id="feGaussianBlur2970" inkscape:collect="always" stdDeviation="2.4632205"></feGaussianBlur>
</filter>
<defs>
	
		<inkscape:path-effect  copytype="repeated_stretched" effect="skeletal" fuse_tolerance="0" hide_knot="false" id="path-effect2816" is_visible="true" lpeversion="1" normal_offset="0" pattern="M 0,0 H 1" prop_scale="1" prop_units="false" scale_y_rel="false" spacing="0" tang_offset="0" vertical_pattern="false">
		</inkscape:path-effect>
	
		<inkscape:path-effect  copytype="repeated_stretched" effect="skeletal" fuse_tolerance="0" hide_knot="false" id="path-effect1116" is_visible="true" lpeversion="1" normal_offset="0" pattern="m 368.79292,726.32322 c -10.795,1.51695 -20.32,6.20889 -27.86945,13.75834 -9.8425,9.80722 -15.16944,23.35389 -14.53444,36.68889 0.49388,9.27805 3.84527,16.61583 8.64305,18.90889 1.97556,0.91722 5.89139,1.05833 7.86695,0.21166 1.76389,-0.70555 3.66889,-2.50472 4.19805,-3.84527 0.11869,-0.3052 0.26183,-0.66745 0.39808,-1.0084 0.42942,-0.83048 0.58455,-1.66421 0.64953,-2.52907 0.0651,-0.86663 0.0833,-1.11203 0.11855,-1.73747 0.0858,-1.54822 0.12804,-4.55305 0.10384,-7.98951 -0.0353,-8.78417 0,-9.17222 0.91722,-12.62945 1.19945,-4.51555 2.01084,-6.56166 4.23334,-10.72444 7.47889,-14.04056 22.04861,-22.93056 37.64139,-22.93056 3.66889,0 8.85472,0.59973 10.83028,1.27 1.27,0.42334 -1.44639,-1.30527 -4.445,-2.82222 -8.50195,-4.33917 -18.90889,-5.99722 -28.75139,-4.62139 z" prop_scale="1.72" prop_units="false" scale_y_rel="false" spacing="0" tang_offset="0" vertical_pattern="false">
		</inkscape:path-effect>
	
		<inkscape:path-effect  copytype="repeated_stretched" effect="skeletal" fuse_tolerance="0" hide_knot="false" id="path-effect1105" is_visible="true" lpeversion="1" normal_offset="0" pattern="m 368.79292,726.32322 c -10.795,1.51695 -20.32,6.20889 -27.86945,13.75834 -9.8425,9.80722 -15.16944,23.35389 -14.53444,36.68889 0.49388,9.27805 3.84527,16.61583 8.64305,18.90889 1.97556,0.91722 5.89139,1.05833 7.86695,0.21166 1.76389,-0.70555 3.66889,-2.50472 4.19805,-3.84527 0.11869,-0.3052 0.26183,-0.66745 0.39808,-1.0084 0.42942,-0.83048 0.58455,-1.66421 0.64953,-2.52907 0.0651,-0.86663 0.0833,-1.11203 0.11855,-1.73747 0.0858,-1.54822 0.12804,-4.55305 0.10384,-7.98951 -0.0353,-8.78417 0,-9.17222 0.91722,-12.62945 1.19945,-4.51555 2.01084,-6.56166 4.23334,-10.72444 7.47889,-14.04056 22.04861,-22.93056 37.64139,-22.93056 3.66889,0 8.85472,0.59973 10.83028,1.27 1.27,0.42334 -1.44639,-1.30527 -4.445,-2.82222 -8.50195,-4.33917 -18.90889,-5.99722 -28.75139,-4.62139 z" prop_scale="1.72" prop_units="false" scale_y_rel="false" spacing="0" tang_offset="0" vertical_pattern="false">
		</inkscape:path-effect>
	
		<inkscape:path-effect  copytype="repeated_stretched" effect="skeletal" fuse_tolerance="0" hide_knot="false" id="path-effect920" is_visible="true" lpeversion="1" normal_offset="0" pattern="m 368.79292,726.32322 c -10.795,1.51695 -20.32,6.20889 -27.86945,13.75834 -9.8425,9.80722 -15.16944,23.35389 -14.53444,36.68889 0.49388,9.27805 3.84527,16.61583 8.64305,18.90889 1.97556,0.91722 5.89139,1.05833 7.86695,0.21166 1.76389,-0.70555 3.66889,-2.50472 4.19805,-3.84527 0.11869,-0.3052 0.26183,-0.66745 0.39808,-1.0084 0.42942,-0.83048 0.58455,-1.66421 0.64953,-2.52907 0.0651,-0.86663 0.0833,-1.11203 0.11855,-1.73747 0.0858,-1.54822 0.12804,-4.55305 0.10384,-7.98951 -0.0353,-8.78417 0,-9.17222 0.91722,-12.62945 1.19945,-4.51555 2.01084,-6.56166 4.23334,-10.72444 7.47889,-14.04056 22.04861,-22.93056 37.64139,-22.93056 3.66889,0 8.85472,0.59973 10.83028,1.27 1.27,0.42334 -1.44639,-1.30527 -4.445,-2.82222 -8.50195,-4.33917 -18.90889,-5.99722 -28.75139,-4.62139 z" prop_scale="1" prop_units="false" scale_y_rel="false" spacing="0" tang_offset="0" vertical_pattern="false">
		</inkscape:path-effect>
</defs>
<sodipodi:namedview  bordercolor="#666666" borderopacity="1.0" id="base" inkscape:current-layer="layer1" inkscape:cx="301.956" inkscape:cy="359.15787" inkscape:document-rotation="0" inkscape:document-units="mm" inkscape:pageopacity="0.0" inkscape:pageshadow="2" inkscape:snap-bbox="true" inkscape:snap-bbox-midpoints="true" inkscape:snap-global="true" inkscape:window-height="1057" inkscape:window-maximized="1" inkscape:window-width="1920" inkscape:window-x="1432" inkscape:window-y="-8" inkscape:zoom="0.49497475" pagecolor="#ffffff" showgrid="false">
	</sodipodi:namedview>
<g>
	<path id="path958-2-3" class="st0" d="M83.2,220.5l-15.5,6.4l26.5,15.4l2.4,30.6l22.8-20.5l29.8,7.2l-12.5-28l0.3-0.4
		C118.2,228.8,100.1,225.2,83.2,220.5L83.2,220.5z"/>
	<path id="path3163" class="st1" d="M39.1,307.6c36.7-17.2,82.5-28,132.6-29.2c-1-6.8-1.6-13.9-1.6-21c0-8.2,0.8-16.1,2.1-23.9
		c-12-0.3-23.8-1.1-35.2-2.5l-0.3,0.4l12.5,28l-29.8-7.2l-22.8,20.5l-2.4-30.6l-26.5-15.4l15.5-6.4c-15.7-4.4-30.5-9.9-44-16.2
		C39.2,204.3,39.3,307.6,39.1,307.6L39.1,307.6z"/>
	<g id="ellipse2976" class="st2">
		<ellipse class="st3" cx="35.4" cy="256" rx="26" ry="53"/>
	</g>
	<ellipse id="ellipse2882" class="st4" cx="40.3" cy="255.9" rx="24.5" ry="49.8"/>
	<ellipse id="ellipse960-8-7" class="st5" cx="35.4" cy="255.7" rx="26" ry="53"/>
	<ellipse id="ellipse3016" class="st6" cx="35.4" cy="256" rx="23" ry="46.8"/>
	<ellipse id="ellipse2880" class="st7" cx="35.4" cy="256" rx="17.9" ry="36.5"/>
	<ellipse id="ellipse2884" class="st8" cx="35.4" cy="256" rx="17.9" ry="36.5"/>
	<g id="ellipse2886" class="st9">
		<ellipse class="st10" cx="35.4" cy="256" rx="17.9" ry="36.5"/>
	</g>
</g>
<g>
	<circle id="path1112" class="st11" cx="256" cy="256" r="123"/>
	
		<path id="path909" inkscape:path-effect="#path-effect1105" sodipodi:cx="689.8208" sodipodi:cy="611.38397" sodipodi:rx="97.221321" sodipodi:ry="97.221321" sodipodi:type="arc" class="st6" d="
		M300.1,164.1c-11-3.5-22.3-1.2-30.6,5.9c-11.3,9.6-13.7,24.6-13.4,39.9c0.2,9.5,1.3,19.6,1.7,21.1c0.3,1,1,1.2,1.6,0.3
		c0.5-0.6,1.5-2.7,1.9-4c0.1-0.3,0.2-0.7,0.4-1.1c0.3-0.9,0.6-1.7,0.9-2.7c0.3-1.1,0.3-1,0.5-1.9c0.4-1.6,1.3-5,2.3-8.6
		c2.4-9.3,2.6-10,4-13.5c1.9-4.4,3.3-7,6-10.7c5-6.7,11.5-11,18.9-12.4c7.3-1.3,15,0.4,20.8,5.1c2.9,2.3,5.9,5.9,6.7,7.9
		c0.5,1.1,0.1-2-0.9-5.2C318.1,175.2,310.2,167.3,300.1,164.1z M351.6,220.5c-5.7-10.1-15.4-15.7-26.2-15.9
		c-14.5-0.3-27,8.6-37.5,19.5c-6.9,7.2-12.4,14.6-13.3,16.9c-0.4,1.1,0.1,2,1.3,1.9c0.9-0.1,3-0.8,4.3-1.4c0.3-0.2,0.7-0.3,1-0.5
		c0.9-0.4,1.7-0.9,2.5-1.4c0.9-0.6,1-0.6,1.7-1c1.4-0.9,4.4-2.8,7.5-4.9c8.1-5.3,8.7-5.7,12.1-7.3c4.4-2,7.2-3,11.7-3.9
		c8.2-1.6,15.9-0.6,22.3,3.5c6.3,4,10.7,10.6,11.9,18.6c0.6,3.9,0.3,8.9-0.4,11.1c-0.1,0.2-0.1,0.3,0,0.3l0,0l0,0l0,0l0,0l0,0l0,0
		c0,0,0,0,0,0l0,0l0,0l0,0l0,0l0,0l0,0l0,0l0,0l0,0l0,0l0,0l0,0l0,0l0,0l0,0l0,0l0,0l0,0l0,0l0,0l0,0l0,0c0.3,0,1.7-2.4,2.9-5
		C357.5,241.6,356.9,229.8,351.6,220.5L351.6,220.5z M347.9,300.1c3.5-11,1.2-22.3-5.9-30.6c-9.6-11.3-24.6-13.7-39.9-13.4
		c-9.5,0.2-19.6,1.3-21.1,1.7c-1,0.3-1.2,1-0.3,1.6c0.6,0.5,2.7,1.5,4,1.9c0.3,0.1,0.7,0.2,1.1,0.4c0.9,0.3,1.7,0.6,2.7,0.9
		c1.1,0.3,1,0.3,1.9,0.5c1.6,0.4,5,1.3,8.6,2.3c9.3,2.4,10,2.6,13.5,4c4.4,1.9,7,3.3,10.7,6c6.7,5,11,11.5,12.4,18.9
		c1.3,7.3-0.4,15-5.1,20.8c-2.3,2.9-5.9,5.9-7.9,6.7c-1.1,0.5,2,0.1,5.2-0.9C336.8,318.1,344.7,310.2,347.9,300.1L347.9,300.1z
		 M291.5,351.6c10.1-5.7,15.7-15.4,15.9-26.2c0.3-14.5-8.6-27-19.5-37.5c-7.2-6.9-14.6-12.4-16.9-13.3c-1.1-0.4-2,0.1-1.9,1.3
		c0.1,0.9,0.8,3,1.4,4.3c0.2,0.3,0.3,0.7,0.5,1c0.4,0.9,0.9,1.7,1.4,2.5c0.6,0.9,0.6,1,1,1.7c0.9,1.4,2.8,4.4,4.9,7.5
		c5.3,8.1,5.7,8.7,7.3,12.1c2,4.4,3,7.2,3.9,11.7c1.6,8.2,0.6,15.9-3.5,22.3c-4,6.3-10.6,10.7-18.6,11.9c-3.9,0.6-8.9,0.3-11.1-0.4
		c-0.2-0.1-0.3-0.1-0.3,0l0,0l0,0l0,0l0,0l0,0l0,0c0,0,0,0,0,0l0,0l0,0l0,0l0,0l0,0l0,0l0,0l0,0l0,0l0,0l0,0l0,0l0,0l0,0l0,0l0,0
		l0,0l0,0l0,0l0,0l0,0c0,0.3,2.4,1.7,5,2.9C270.4,357.5,282.2,356.9,291.5,351.6L291.5,351.6z M211.9,347.9
		c11,3.5,22.3,1.2,30.6-5.9c11.3-9.6,13.7-24.6,13.4-39.9c-0.2-9.5-1.3-19.6-1.7-21.1c-0.3-1-1-1.2-1.6-0.3c-0.5,0.6-1.5,2.7-1.9,4
		c-0.1,0.3-0.2,0.7-0.4,1.1c-0.3,0.9-0.6,1.7-0.9,2.7c-0.3,1.1-0.3,1-0.5,1.9c-0.4,1.6-1.3,5-2.3,8.6c-2.4,9.3-2.6,10-4,13.5
		c-1.9,4.4-3.3,7-6,10.7c-5,6.7-11.5,11-18.9,12.4c-7.3,1.3-15-0.4-20.8-5.1c-2.9-2.3-5.9-5.9-6.7-7.9c-0.5-1.1-0.1,2,0.9,5.2
		C193.9,336.8,201.8,344.7,211.9,347.9L211.9,347.9z M160.4,291.5c5.7,10.1,15.4,15.7,26.2,15.9c14.5,0.3,27-8.6,37.5-19.5
		c6.9-7.2,12.4-14.6,13.3-16.9c0.4-1.1-0.1-2-1.3-1.9c-0.9,0.1-3,0.8-4.3,1.4c-0.3,0.2-0.7,0.3-1,0.5c-0.9,0.4-1.7,0.9-2.5,1.4
		c-0.9,0.6-1,0.6-1.7,1c-1.4,0.9-4.4,2.8-7.5,4.9c-8.1,5.3-8.7,5.7-12.1,7.3c-4.4,2-7.2,3-11.7,3.9c-8.2,1.6-15.9,0.6-22.3-3.5
		c-6.3-4-10.7-10.6-11.9-18.6c-0.6-3.9-0.3-8.9,0.4-11.1c0.1-0.2,0.1-0.3,0-0.3l0,0l0,0c0,0,0,0,0,0l0,0c-0.3,0-1.7,2.4-2.9,5
		C154.5,270.4,155.1,282.2,160.4,291.5L160.4,291.5z M164.1,211.9c-3.5,11-1.2,22.3,5.9,30.6c9.6,11.3,24.6,13.7,39.9,13.4
		c9.5-0.2,19.6-1.3,21.1-1.7c1-0.3,1.2-1,0.3-1.6c-0.6-0.5-2.7-1.5-4-1.9c-0.3-0.1-0.7-0.2-1.1-0.4c-0.9-0.3-1.7-0.6-2.7-0.9
		c-1.1-0.3-1-0.3-1.9-0.5c-1.6-0.4-5-1.3-8.6-2.3c-9.3-2.4-10-2.6-13.5-4c-4.4-1.9-7-3.3-10.7-6c-6.7-5-11-11.5-12.4-18.9
		c-1.3-7.3,0.4-15,5.1-20.8c2.3-2.9,5.9-5.9,7.9-6.7c1.1-0.5-2-0.1-5.2,0.9C175.2,193.9,167.3,201.8,164.1,211.9L164.1,211.9z
		 M220.5,160.4c-10.1,5.7-15.7,15.4-15.9,26.2c-0.3,14.5,8.6,27,19.5,37.5c7.2,6.9,14.6,12.4,16.9,13.3c1.1,0.4,2-0.1,1.9-1.3
		c-0.1-0.9-0.8-3-1.4-4.3c-0.2-0.3-0.3-0.7-0.5-1c-0.4-0.9-0.9-1.7-1.4-2.5c-0.6-0.9-0.6-1-1-1.7c-0.9-1.4-2.8-4.4-4.9-7.5
		c-5.3-8.1-5.7-8.7-7.3-12.1c-2-4.4-3-7.2-3.9-11.7c-1.6-8.2-0.6-15.9,3.5-22.3c4-6.3,10.6-10.7,18.6-11.9c3.9-0.6,8.9-0.3,11.1,0.4
		c1.3,0.4-1.4-1.4-4.7-2.9C241.6,154.5,229.8,155.1,220.5,160.4L220.5,160.4z"/>
</g>
</svg>
