<?xml version="1.0" encoding="utf-8"?>
<!-- Generator: Adobe Illustrator 24.0.2, SVG Export Plug-In . SVG Version: 6.00 Build 0)  -->
<svg version="1.1" id="Layer_1" xmlns="http://www.w3.org/2000/svg" xmlns:xlink="http://www.w3.org/1999/xlink" x="0px" y="0px"
	 viewBox="0 0 512 512" style="enable-background:new 0 0 512 512;" xml:space="preserve">
<style type="text/css">
	.st0{fill:url(#SVGID_1_);}
	.st1{fill:url(#SVGID_2_);}
	.st2{fill:url(#SVGID_3_);}
	.st3{fill:url(#SVGID_4_);}
	.st4{fill:url(#SVGID_5_);}
	.st5{fill:url(#SVGID_6_);}
	.st6{fill:url(#SVGID_7_);}
	.st7{fill:url(#SVGID_8_);}
	.st8{fill:url(#SVGID_9_);}
	.st9{fill:#2300BF;}
	.st10{fill:url(#SVGID_10_);}
	.st11{fill:#444444;}
</style>
<g>
	<linearGradient id="SVGID_1_" gradientUnits="userSpaceOnUse" x1="230.3816" y1="234.7722" x2="357.7663" y2="234.7722">
		<stop  offset="0" style="stop-color:#C400FF"/>
		<stop  offset="1" style="stop-color:#2300BF"/>
	</linearGradient>
	<ellipse class="st0" cx="294.1" cy="234.8" rx="63.7" ry="73.6"/>
	<linearGradient id="SVGID_2_" gradientUnits="userSpaceOnUse" x1="115.3908" y1="240.244" x2="234.4924" y2="240.244">
		<stop  offset="0" style="stop-color:#FF0007"/>
		<stop  offset="0.561" style="stop-color:#6D0003"/>
		<stop  offset="1" style="stop-color:#000000"/>
	</linearGradient>
	<path class="st1" d="M116,286.4c32.6-15.5,73.6-25.4,118.3-26.8c-0.1-0.3-0.1-0.6-0.1-1c-0.1-0.3-0.1-0.6-0.2-0.9
		c-0.1-0.5-0.2-1-0.2-1.5c0,0,0,0,0,0c-0.2-0.5-0.3-1.1-0.3-1.7c0-0.2,0-0.4,0-0.6c-0.2-0.5-0.3-1-0.3-1.7c-0.1-0.5-0.2-1-0.2-1.5
		c0-0.1,0-0.3,0-0.4c-0.1-0.3-0.1-0.7-0.1-1.1c0-0.1,0-0.1,0-0.1c-0.1-0.4-0.1-0.7-0.1-1.2c0-0.2,0-0.3,0-0.5c0-0.1,0-0.2,0-0.3
		c0-0.1,0-0.2,0-0.3c-0.1-0.3-0.1-0.7-0.1-1.1c0-0.3,0-0.5,0.1-0.8c-0.1-0.3-0.1-0.6-0.1-1c0-0.3,0-0.5,0.1-0.8
		c0-0.3-0.1-0.5-0.1-0.8c0-0.1,0-0.2,0-0.3c-0.1-0.4-0.2-0.9-0.2-1.4c0-0.4,0-0.7,0.1-1.1c0-0.3-0.1-0.5-0.1-0.8
		c0-0.3,0-0.5,0.1-0.8c0-0.3-0.1-0.5-0.1-0.8c0-0.5,0.1-0.9,0.2-1.3c0-0.1,0-0.2,0-0.3c0-0.2,0-0.4,0-0.6c0-0.2,0-0.4,0-0.6
		c0-0.6,0.1-1.2,0.3-1.7c0-0.3-0.1-0.5-0.1-0.8c0-0.7,0.1-1.3,0.3-1.9c0-0.1,0-0.1,0-0.2c0-0.5,0.1-1,0.2-1.4c0-0.6,0.1-1.1,0.3-1.6
		c0-0.2,0.1-0.4,0.1-0.7c0.2-2.2,0.5-4.3,0.9-6.4c0-0.1,0-0.2,0-0.3c0-0.1,0-0.1,0-0.2c-44.9-0.8-86.2-10.1-119.1-25.3L116,286.4z"
		/>
	<linearGradient id="SVGID_3_" gradientUnits="userSpaceOnUse" x1="94.4906" y1="240.244" x2="139.4558" y2="240.244">
		<stop  offset="0" style="stop-color:#FF0007"/>
		<stop  offset="0.561" style="stop-color:#6D0003"/>
		<stop  offset="1" style="stop-color:#000000"/>
	</linearGradient>
	<path class="st2" d="M139.5,240.4c-0.2,25.3-10.5,45.7-22.9,45.6c-12.4-0.1-22.3-20.7-22.1-46s10.5-45.7,22.9-45.6
		S139.7,215.1,139.5,240.4z"/>
	<linearGradient id="SVGID_4_" gradientUnits="userSpaceOnUse" x1="141.4049" y1="221.415" x2="155.2168" y2="221.415">
		<stop  offset="0" style="stop-color:#C400FF"/>
		<stop  offset="1" style="stop-color:#2300BF"/>
	</linearGradient>
	<polygon class="st3" points="155.2,222.5 150.5,223.7 148.8,228.2 146.2,224.1 141.4,223.8 144.5,220.1 143.3,215.5 147.7,217.3 
		151.8,214.6 151.4,219.5 	"/>
	<linearGradient id="SVGID_5_" gradientUnits="userSpaceOnUse" x1="170.0011" y1="231.4874" x2="193.3281" y2="231.4874">
		<stop  offset="0" style="stop-color:#C400FF"/>
		<stop  offset="1" style="stop-color:#2300BF"/>
	</linearGradient>
	<polygon class="st4" points="183.3,243.3 178.3,236.7 170,237.1 174.7,230.2 171.8,222.5 179.7,224.9 186.2,219.7 186.4,228 
		193.3,232.5 185.5,235.3 	"/>
	<linearGradient id="SVGID_6_" gradientUnits="userSpaceOnUse" x1="141.2959" y1="249.5317" x2="169.1378" y2="249.5317">
		<stop  offset="0" style="stop-color:#C400FF"/>
		<stop  offset="1" style="stop-color:#2300BF"/>
	</linearGradient>
	<polygon class="st5" points="157.7,263.8 151.3,256.1 141.3,257.1 146.6,248.6 142.6,239.4 152.3,241.9 159.8,235.2 160.5,245.2 
		169.1,250.3 159.9,254.1 	"/>
	<linearGradient id="SVGID_7_" gradientUnits="userSpaceOnUse" x1="195.1174" y1="240.244" x2="228.4188" y2="240.244">
		<stop  offset="0" style="stop-color:#C400FF"/>
		<stop  offset="1" style="stop-color:#2300BF"/>
	</linearGradient>
	<polygon class="st6" points="226.4,252.6 214.9,249.5 205.8,257.2 205.3,245.3 195.1,239.1 206.2,234.8 209.1,223.3 216.5,232.5 
		228.4,231.6 221.9,241.6 	"/>
	<linearGradient id="SVGID_8_" gradientUnits="userSpaceOnUse" x1="170.9875" y1="252.5538" x2="186.8678" y2="252.5538">
		<stop  offset="0" style="stop-color:#C400FF"/>
		<stop  offset="1" style="stop-color:#2300BF"/>
	</linearGradient>
	<polygon class="st7" points="177,260.9 176.2,255.1 171,252.5 176.2,250 177.1,244.2 181.1,248.4 186.9,247.5 184.1,252.6 
		186.8,257.8 181.1,256.7 	"/>
	<linearGradient id="SVGID_9_" gradientUnits="userSpaceOnUse" x1="189.8722" y1="249.1777" x2="200.7687" y2="249.1777">
		<stop  offset="0" style="stop-color:#C400FF"/>
		<stop  offset="1" style="stop-color:#2300BF"/>
	</linearGradient>
	<polygon class="st8" points="198,254.6 194.8,252.4 191.2,253.8 192.3,250.1 189.9,247.1 193.7,247 195.8,243.8 197.1,247.4 
		200.8,248.4 197.7,250.7 	"/>
	<ellipse class="st9" cx="313.6" cy="233.7" rx="37.8" ry="70.7"/>
	<linearGradient id="SVGID_10_" gradientUnits="userSpaceOnUse" x1="294.0739" y1="225.5876" x2="341.3907" y2="225.5876">
		<stop  offset="0" style="stop-color:#FF0007"/>
		<stop  offset="0.561" style="stop-color:#6D0003"/>
		<stop  offset="1" style="stop-color:#000000"/>
	</linearGradient>
	<polygon class="st10" points="294.1,220 310.4,217.8 317.9,203 325.1,217.9 341.4,220.4 329.5,231.8 332.1,248.2 317.5,240.3 
		302.8,247.9 305.8,231.6 	"/>
	<rect x="253.1" y="200.6" class="st11" width="2.6" height="25"/>
	<rect x="253.1" y="240.2" class="st11" width="2.6" height="17"/>
</g>
</svg>
