<?xml version="1.0" encoding="utf-8"?>
<!-- Generator: Adobe Illustrator 24.0.2, SVG Export Plug-In . SVG Version: 6.00 Build 0)  -->
<svg version="1.1" id="Layer_1" xmlns="http://www.w3.org/2000/svg" xmlns:xlink="http://www.w3.org/1999/xlink" x="0px" y="0px"
	 viewBox="0 0 512 512" style="enable-background:new 0 0 512 512;" xml:space="preserve">
<style type="text/css">
	.st0{fill:#7C0303;}
	.st1{fill:#666666;}
	.st2{fill:#4D4D4D;}
	.st3{fill:#6B6B6B;}
	.st4{fill:#7D8096;}
	.st5{fill:url(#SVGID_1_);}
</style>
<g>
	<path class="st0" d="M319.8,113.1c5,0,10,0.3,14.9,0.9c15.6,1.9,30.4,6.7,43.6,13.9c10.6,5.8,20.3,13,28.7,21.5
		c22.3,22.4,36,53.3,36,87.4c0,8.9-1,17.6-2.8,26c-4.3,20.1-13.6,38.4-26.4,53.5c-9.3,11-20.5,20.3-33.1,27.5
		c-18.1,10.4-39.1,16.3-61.5,16.2c-34.1-0.1-64.9-14-87.2-36.4c-18.1-18.2-30.6-42-34.6-68.6c-0.9-6.2-1.4-12.4-1.4-18.9
		c0-7.3,0.7-14.5,1.9-21.4c1.6-9.1,4.2-17.8,7.7-26l0,0c2.3-5.5,5-10.8,8.1-15.9c3.7-6.2,8-12.1,12.8-17.5c0,0,0,0,0,0
		c1.9-2.2,3.9-4.3,5.9-6.3c1.6-1.6,3.2-3.1,4.8-4.6c0.3-0.3,0.7-0.6,1-0.9c7.6-6.7,16-12.4,25.1-17
		C280.3,117.9,299.5,113.1,319.8,113.1z"/>
</g>
<path class="st1" d="M79,188.6c32.8,15.5,74,25.2,118.9,26.3c-1.2,7-1.9,14.1-1.9,21.4c0,6.4,0.5,12.7,1.4,18.9
	c-44.8,1-85.9,10.5-118.6,25.8C78.8,281,79,188.6,79,188.6z"/>
<ellipse transform="matrix(2.312298e-03 -1 1 2.312298e-03 -157.6964 312.0074)" class="st2" cx="77.5" cy="235" rx="45.8" ry="22.5"/>
<circle class="st3" cx="269.8" cy="181.5" r="13.5"/>
<circle class="st3" cx="269.8" cy="269.8" r="13.8"/>
<ellipse class="st4" cx="373" cy="236.6" rx="70" ry="123.5"/>
<linearGradient id="SVGID_1_" gradientUnits="userSpaceOnUse" x1="331.5526" y1="224.9725" x2="414.481" y2="224.9725">
	<stop  offset="0" style="stop-color:#BF0000"/>
	<stop  offset="1" style="stop-color:#000000"/>
</linearGradient>
<polygon class="st5" points="399.2,264 373.4,250.8 347.9,264.5 352.5,236 331.6,216 360.2,211.5 372.7,185.4 385.8,211.2 
	414.5,215.1 394,235.5 "/>
</svg>
