<?xml version="1.0" encoding="utf-8"?>
<!-- Generator: Adobe Illustrator 24.2.1, SVG Export Plug-In . SVG Version: 6.00 Build 0)  -->
<svg version="1.1" id="Layer_1" xmlns="http://www.w3.org/2000/svg" xmlns:xlink="http://www.w3.org/1999/xlink" x="0px" y="0px"
	 viewBox="0 0 512 512" style="enable-background:new 0 0 512 512;" xml:space="preserve">
<style type="text/css">
	.st0{fill:#666666;}
	.st1{fill:#4D4D4D;}
	.st2{fill:#FF931E;}
	.st3{fill:#FF7300;}
</style>
<g>
	<path class="st0" d="M33.9,209.8c32.9,15.4,74.1,25,119,26.1c-1.2,7-1.9,14.1-1.9,21.4c0,6.4,0.5,12.7,1.4,18.8
		c-44.8,1.1-85.8,10.7-118.6,26.1C34,302.2,33.9,209.8,33.9,209.8z"/>
	<ellipse class="st1" cx="32.6" cy="256.3" rx="22.5" ry="45.8"/>
</g>
<g>
	<g>
		<path class="st2" d="M256.2,132.5c5,0,10,0.3,14.9,0.9c15.7,1.9,30.4,6.7,43.7,13.8c10.6,5.7,20.3,13,28.8,21.4
			c22.4,22.3,36.2,53.2,36.2,87.3c0,8.9-0.9,17.6-2.7,26c-4.3,20.1-13.5,38.4-26.3,53.6c-9.3,11-20.4,20.4-33,27.6
			c-18.1,10.4-39.1,16.4-61.5,16.4c-34.1,0-65-13.8-87.3-36.2c-18.2-18.1-30.7-41.9-34.7-68.5c-0.9-6.1-1.4-12.4-1.4-18.8
			c0-7.3,0.6-14.5,1.9-21.4c1.6-9.1,4.2-17.8,7.6-26.1l0,0c2.3-5.5,5-10.8,8-15.9c3.7-6.2,8-12.1,12.7-17.5l0,0
			c1.9-2.2,3.9-4.3,5.9-6.4c1.6-1.6,3.2-3.1,4.8-4.6c0.3-0.3,0.7-0.6,1-0.9c7.6-6.7,16-12.4,25.1-17.1
			C216.7,137.4,235.9,132.5,256.2,132.5z"/>
	</g>
	<path class="st3" d="M203.7,333.5c0,0,60-1,82,12s24,4,0-12s-112-13-112-13L203.7,333.5z"/>
	<path class="st3" d="M173.7,295.5l-37.5-10.4c0,0-6.7-24.3-2.6-44C137.7,221.5,173.7,295.5,173.7,295.5z"/>
	<path class="st3" d="M142.2,208.5c0,0,63.5,62,57.5,87s21,37,16,0s-65.5-102.9-65.5-102.9L142.2,208.5z"/>
	<path class="st3" d="M162.9,175.1c0,0,87.8,110.4,82.8,125.4s20-5,20-5s-92-146-92-131.4C173.7,164.5,162.9,175.1,162.9,175.1z"/>
	<path class="st3" d="M314.7,147.2c10.6,5.7,20.3,13,28.8,21.4c22.4,22.3,36.2,53.2,36.2,87.3c0,8.9-0.9,17.6-2.7,26
		c-42.3-7.8-74.3-44.9-74.3-89.5C302.7,176,307.1,160.5,314.7,147.2z"/>
	<path class="st3" d="M317.7,295.5h33v40c-9.3,11-20.4,20.4-33,27.6V295.5z"/>
	<path class="st3" d="M256.2,132.5c5,0,10,0.3,14.9,0.9l-3.5,6.1l16.5,34.4l-37.3-7.8l-27.6,26.3l-4.1-37.9l-15.3-8.2
		C216.7,137.4,235.9,132.5,256.2,132.5z"/>
	<path class="st3" d="M263.7,254.5c0,0-2-62,20-60s-18,34,7,47s10,42-7,32S263.7,254.5,263.7,254.5z"/>
</g>
</svg>
