<?xml version="1.0" encoding="UTF-8" standalone="no"?>
<svg
   xmlns:dc="http://purl.org/dc/elements/1.1/"
   xmlns:cc="http://creativecommons.org/ns#"
   xmlns:rdf="http://www.w3.org/1999/02/22-rdf-syntax-ns#"
   xmlns:svg="http://www.w3.org/2000/svg"
   xmlns="http://www.w3.org/2000/svg"
   xmlns:xlink="http://www.w3.org/1999/xlink"
   xmlns:sodipodi="http://sodipodi.sourceforge.net/DTD/sodipodi-0.dtd"
   xmlns:inkscape="http://www.inkscape.org/namespaces/inkscape"
   width="210mm"
   height="297mm"
   viewBox="0 0 210 297"
   version="1.1"
   id="svg8"
   inkscape:version="1.0 (4035a4fb49, 2020-05-01)"
   sodipodi:docname="drawing-1.svg">
  <defs
     id="defs2">
    <linearGradient
       inkscape:collect="always"
       id="linearGradient2844">
      <stop
         style="stop-color:#000000;stop-opacity:1;"
         offset="0"
         id="stop2840" />
      <stop
         style="stop-color:#53c5ff;stop-opacity:0.51209676"
         offset="1"
         id="stop2842" />
    </linearGradient>
    <inkscape:path-effect
       effect="skeletal"
       id="path-effect2816"
       is_visible="true"
       lpeversion="1"
       pattern="M 0,0 H 1"
       copytype="repeated_stretched"
       prop_scale="1"
       scale_y_rel="false"
       spacing="0"
       normal_offset="0"
       tang_offset="0"
       prop_units="false"
       vertical_pattern="false"
       hide_knot="false"
       fuse_tolerance="0" />
    <inkscape:path-effect
       fuse_tolerance="0"
       hide_knot="false"
       vertical_pattern="false"
       prop_units="false"
       tang_offset="0"
       normal_offset="0"
       spacing="0"
       scale_y_rel="false"
       prop_scale="1.72"
       copytype="repeated_stretched"
       pattern="m 368.79292,726.32322 c -10.795,1.51695 -20.32,6.20889 -27.86945,13.75834 -9.8425,9.80722 -15.16944,23.35389 -14.53444,36.68889 0.49388,9.27805 3.84527,16.61583 8.64305,18.90889 1.97556,0.91722 5.89139,1.05833 7.86695,0.21166 1.76389,-0.70555 3.66889,-2.50472 4.19805,-3.84527 0.11869,-0.3052 0.26183,-0.66745 0.39808,-1.0084 0.42942,-0.83048 0.58455,-1.66421 0.64953,-2.52907 0.0651,-0.86663 0.0833,-1.11203 0.11855,-1.73747 0.0858,-1.54822 0.12804,-4.55305 0.10384,-7.98951 -0.0353,-8.78417 0,-9.17222 0.91722,-12.62945 1.19945,-4.51555 2.01084,-6.56166 4.23334,-10.72444 7.47889,-14.04056 22.04861,-22.93056 37.64139,-22.93056 3.66889,0 8.85472,0.59973 10.83028,1.27 1.27,0.42334 -1.44639,-1.30527 -4.445,-2.82222 -8.50195,-4.33917 -18.90889,-5.99722 -28.75139,-4.62139 z"
       lpeversion="1"
       is_visible="true"
       id="path-effect1116"
       effect="skeletal" />
    <inkscape:path-effect
       effect="skeletal"
       id="path-effect1105"
       is_visible="true"
       lpeversion="1"
       pattern="m 368.79292,726.32322 c -10.795,1.51695 -20.32,6.20889 -27.86945,13.75834 -9.8425,9.80722 -15.16944,23.35389 -14.53444,36.68889 0.49388,9.27805 3.84527,16.61583 8.64305,18.90889 1.97556,0.91722 5.89139,1.05833 7.86695,0.21166 1.76389,-0.70555 3.66889,-2.50472 4.19805,-3.84527 0.11869,-0.3052 0.26183,-0.66745 0.39808,-1.0084 0.42942,-0.83048 0.58455,-1.66421 0.64953,-2.52907 0.0651,-0.86663 0.0833,-1.11203 0.11855,-1.73747 0.0858,-1.54822 0.12804,-4.55305 0.10384,-7.98951 -0.0353,-8.78417 0,-9.17222 0.91722,-12.62945 1.19945,-4.51555 2.01084,-6.56166 4.23334,-10.72444 7.47889,-14.04056 22.04861,-22.93056 37.64139,-22.93056 3.66889,0 8.85472,0.59973 10.83028,1.27 1.27,0.42334 -1.44639,-1.30527 -4.445,-2.82222 -8.50195,-4.33917 -18.90889,-5.99722 -28.75139,-4.62139 z"
       copytype="repeated_stretched"
       prop_scale="1.72"
       scale_y_rel="false"
       spacing="0"
       normal_offset="0"
       tang_offset="0"
       prop_units="false"
       vertical_pattern="false"
       hide_knot="false"
       fuse_tolerance="0" />
    <inkscape:path-effect
       effect="skeletal"
       id="path-effect920"
       is_visible="true"
       lpeversion="1"
       pattern="m 368.79292,726.32322 c -10.795,1.51695 -20.32,6.20889 -27.86945,13.75834 -9.8425,9.80722 -15.16944,23.35389 -14.53444,36.68889 0.49388,9.27805 3.84527,16.61583 8.64305,18.90889 1.97556,0.91722 5.89139,1.05833 7.86695,0.21166 1.76389,-0.70555 3.66889,-2.50472 4.19805,-3.84527 0.11869,-0.3052 0.26183,-0.66745 0.39808,-1.0084 0.42942,-0.83048 0.58455,-1.66421 0.64953,-2.52907 0.0651,-0.86663 0.0833,-1.11203 0.11855,-1.73747 0.0858,-1.54822 0.12804,-4.55305 0.10384,-7.98951 -0.0353,-8.78417 0,-9.17222 0.91722,-12.62945 1.19945,-4.51555 2.01084,-6.56166 4.23334,-10.72444 7.47889,-14.04056 22.04861,-22.93056 37.64139,-22.93056 3.66889,0 8.85472,0.59973 10.83028,1.27 1.27,0.42334 -1.44639,-1.30527 -4.445,-2.82222 -8.50195,-4.33917 -18.90889,-5.99722 -28.75139,-4.62139 z"
       copytype="repeated_stretched"
       prop_scale="1"
       scale_y_rel="false"
       spacing="0"
       normal_offset="0"
       tang_offset="0"
       prop_units="false"
       vertical_pattern="false"
       hide_knot="false"
       fuse_tolerance="0" />
    <filter
       inkscape:collect="always"
       style="color-interpolation-filters:sRGB"
       id="filter1206"
       x="-0.082889544"
       width="1.1657791"
       y="-0.082889549"
       height="1.1657791">
      <feGaussianBlur
         inkscape:collect="always"
         stdDeviation="10.930401"
         id="feGaussianBlur1208" />
    </filter>
    <radialGradient
       inkscape:collect="always"
       xlink:href="#linearGradient2844"
       id="radialGradient2846"
       cx="695.4353"
       cy="613.65082"
       fx="695.4353"
       fy="613.65082"
       r="158.24048"
       gradientTransform="matrix(0.31586421,-1.0183728,0.91888257,0.28499585,-91.978353,1144.7074)"
       gradientUnits="userSpaceOnUse" />
    <filter
       inkscape:collect="always"
       style="color-interpolation-filters:sRGB"
       id="filter2968"
       x="-0.053091435"
       width="1.1061829"
       y="-0.10807057"
       height="1.2161411">
      <feGaussianBlur
         inkscape:collect="always"
         stdDeviation="2.4632205"
         id="feGaussianBlur2970" />
    </filter>
    <filter
       inkscape:collect="always"
       style="color-interpolation-filters:sRGB"
       id="filter2990"
       x="-0.058827075"
       width="1.1176542"
       y="-0.11974578"
       height="1.2394916">
      <feGaussianBlur
         inkscape:collect="always"
         stdDeviation="3.9593675"
         id="feGaussianBlur2992" />
    </filter>
    <filter
       inkscape:collect="always"
       style="color-interpolation-filters:sRGB"
       id="filter3106"
       x="-0.1301641"
       width="1.2603282"
       y="-0.26495623"
       height="1.5299125">
      <feGaussianBlur
         inkscape:collect="always"
         stdDeviation="5.9978374"
         id="feGaussianBlur3108" />
    </filter>
    <filter
       inkscape:collect="always"
       style="color-interpolation-filters:sRGB"
       id="filter3220"
       x="-0.28317077"
       width="1.5663415"
       y="-0.18168664"
       height="1.3633733">
      <feGaussianBlur
         inkscape:collect="always"
         stdDeviation="30.082977"
         id="feGaussianBlur3222" />
    </filter>
  </defs>
  <sodipodi:namedview
     id="base"
     pagecolor="#ffffff"
     bordercolor="#666666"
     borderopacity="1.0"
     inkscape:pageopacity="0.0"
     inkscape:pageshadow="2"
     inkscape:zoom="0.49497475"
     inkscape:cx="301.956"
     inkscape:cy="359.15787"
     inkscape:document-units="mm"
     inkscape:current-layer="layer1"
     inkscape:document-rotation="0"
     showgrid="false"
     inkscape:snap-bbox="true"
     inkscape:snap-bbox-midpoints="true"
     inkscape:snap-global="true"
     inkscape:window-width="1920"
     inkscape:window-height="1057"
     inkscape:window-x="1432"
     inkscape:window-y="-8"
     inkscape:window-maximized="1" />
  <metadata
     id="metadata5">
    <rdf:RDF>
      <cc:Work
         rdf:about="">
        <dc:format>image/svg+xml</dc:format>
        <dc:type
           rdf:resource="http://purl.org/dc/dcmitype/StillImage" />
        <dc:title />
      </cc:Work>
    </rdf:RDF>
  </metadata>
  <g
     inkscape:label="Layer 1"
     inkscape:groupmode="layer"
     id="layer1">
    <g
       transform="translate(2.6727071,8.5997706)"
       id="g893">
      <path
         d="m 128.76009,52.017223 -4.17031,-10.070095 -9.98096,17.259386 -19.876166,1.562396 13.330456,14.825869 -4.65619,19.386378 18.21967,-8.096648 0.28438,0.174377 c 1.43624,-12.291722 3.75729,-24.040122 6.84912,-35.041663 z"
         style="fill:#3991b8;fill-opacity:1;stroke:#656565;stroke-width:0.727197;stroke-miterlimit:4;stroke-dasharray:none;stroke-opacity:1"
         id="path958-2-3" />
      <path
         d="m 72.078896,23.345591 c 11.199513,23.853507 18.18109,53.670398 18.981052,86.250809 4.436167,-0.65452 9.017572,-1.01814 13.671922,-1.01814 5.30886,0 10.47231,0.50908 15.56301,1.38176 0.19119,-7.80459 0.74542,-15.449664 1.61609,-22.901134 l -0.28438,-0.174377 -18.21967,8.096648 4.65619,-19.386378 -13.330456,-14.825869 19.876166,-1.562396 9.98096,-17.259386 4.17031,10.070095 c 2.87572,-10.232527 6.40884,-19.824855 10.51584,-28.59891 0,0 -67.197034,0.07273 -67.197034,-0.07272 z"
         style="fill:#000000;fill-opacity:1;stroke:#656565;stroke-width:0.727197;stroke-miterlimit:4;stroke-dasharray:none;stroke-opacity:1"
         id="path3163" />
      <ellipse
         id="ellipse2976"
         ry="80.766228"
         rx="39.677731"
         cy="-693.27899"
         cx="228.80823"
         class="st1"
         transform="matrix(0,0.42632602,-0.42632602,0,-189.90982,-76.55992)"
         style="fill:#64a1cc;fill-opacity:1;stroke-width:1.76345;filter:url(#filter2990)" />
      <ellipse
         id="ellipse2882"
         ry="32.41024"
         rx="15.922059"
         cy="-105.71004"
         cx="24.13496"
         class="st1"
         transform="rotate(90)"
         style="fill:#929292;fill-opacity:0.818548;stroke-width:0.707646" />
      <ellipse
         style="fill:#000000;fill-opacity:1;stroke:#5d5d5d;stroke-width:0.751807;stroke-opacity:1"
         transform="rotate(90)"
         class="st1"
         cx="20.986988"
         cy="-105.84205"
         rx="16.915649"
         ry="34.432747"
         id="ellipse960-8-7" />
      <ellipse
         id="ellipse3016"
         ry="30.413811"
         rx="14.941284"
         cy="-105.65306"
         cx="20.986988"
         class="st1"
         transform="rotate(90)"
         style="fill:#5b95bb;fill-opacity:1;stroke-width:0.664055" />
      <ellipse
         style="fill:#fefefe;fill-opacity:1;stroke-width:1.20731;filter:url(#filter3106)"
         transform="matrix(0,0.50440929,-0.50440929,0,-244.20552,-111.06802)"
         class="st1"
         cx="261.8013"
         cy="-693.60059"
         rx="27.164505"
         ry="55.294853"
         id="ellipse3018" />
      <ellipse
         id="ellipse2880"
         ry="23.735693"
         rx="11.660546"
         cy="-105.65306"
         cx="20.986988"
         class="st1"
         transform="rotate(90)"
         style="fill:#262626;fill-opacity:1;stroke-width:0.518245" />
      <ellipse
         style="fill:none;fill-opacity:1;stroke:#000000;stroke-width:0.518245;stroke-opacity:0.513725"
         transform="rotate(90)"
         class="st1"
         cx="20.986988"
         cy="-105.65306"
         rx="11.660546"
         ry="23.735693"
         id="ellipse2884" />
      <ellipse
         id="ellipse2886"
         ry="55.67498"
         rx="27.351244"
         cy="-693.27899"
         cx="228.80823"
         class="st1"
         transform="matrix(0,0.42632602,-0.42632602,0,-189.90982,-76.55992)"
         style="fill:none;fill-opacity:1;stroke:#d2d2d2;stroke-width:1.21561;stroke-opacity:1;filter:url(#filter2968)" />
      <path
         id="path3166"
         style="fill:#ffffff;fill-opacity:1;stroke:#000000;stroke-width:5.44887;stroke-miterlimit:4;stroke-dasharray:none;stroke-opacity:1;filter:url(#filter3220)"
         d="m 2794.623,1221.9941 -31.248,-75.455 -74.7871,129.3242 -148.9317,11.707 99.8848,111.0899 -34.8887,145.2617 136.5196,-60.668 2.1308,1.3066 c 10.7617,-92.1016 28.1533,-180.1321 51.3203,-262.5664 z"
         transform="matrix(0.13345829,0,0,0.13345829,-244.20552,-111.06802)" />
    </g>
    <circle
       style="fill:#000000;fill-opacity:1;stroke:#656565;stroke-width:0.988158;stroke-miterlimit:4;stroke-dasharray:none;stroke-opacity:1"
       id="path1112"
       cx="108.32576"
       cy="195.99759"
       r="79.977348" />
    <g
       id="g2974"
       transform="matrix(0.42572495,0,0,0.42572495,-185.34818,-64.283844)">
      <path
         d="m 830.1588,678.69492 c 5.30031,-16.79155 1.82516,-34.12737 -9.01963,-46.75836 -14.72411,-17.21108 -37.57538,-20.94632 -60.95891,-20.51777 -14.43814,0.29686 -29.88282,1.95363 -32.20002,2.62636 -1.5199,0.45895 -1.84253,1.57375 -0.52965,2.49725 0.96824,0.71905 4.0647,2.24038 6.08921,2.94497 0.50894,0.17632 1.06108,0.37099 1.62573,0.57397 1.34061,0.52742 2.66639,0.94112 4.0973,1.33918 1.66544,0.4633 1.57443,0.44002 2.84579,0.7896 2.41609,0.6636 7.59645,2.03005 13.13289,3.44091 14.27293,3.65522 15.28734,3.90948 20.57082,6.15557 6.68788,2.84445 10.6828,5.00975 16.29332,9.18255 10.20374,7.57773 16.83317,17.59417 18.89689,28.88713 2.04568,11.19423 -0.6462,22.84399 -7.86568,31.84198 -3.52111,4.38854 -9.04662,8.96127 -12.08613,10.26306 -1.74084,0.75817 2.98722,0.1907 7.98364,-1.37285 14.24157,-4.39636 26.23653,-16.45012 31.12443,-31.89355 z m -86.1116,78.73118 c 15.46959,-8.75561 23.97177,-23.54358 24.26802,-39.9959 0.43619,-22.07438 -13.13522,-41.2977 -29.75836,-57.25597 -10.96581,-10.4755 -22.35659,-18.99884 -25.74408,-20.29041 -1.68102,-0.61709 -3.07698,0.22486 -2.90441,1.92187 0.0965,1.35043 1.17846,4.57185 2.20059,6.55004 0.24977,0.48143 0.5206,1.01002 0.79329,1.54949 0.61043,1.31724 1.31175,2.54007 2.09757,3.8057 0.87221,1.40476 0.91214,1.47231 1.57066,2.52364 1.35305,2.15862 4.24146,6.64832 7.40838,11.47638 8.12733,12.4243 8.67848,13.26622 11.08403,18.5456 3.04126,6.67757 4.53306,10.94564 5.91801,17.84657 2.51409,12.48134 0.84103,24.31376 -5.27997,33.98587 -6.07062,9.59247 -16.24736,16.40682 -28.39912,18.20196 -5.91947,0.87446 -13.61096,0.51923 -16.97857,-0.60159 -0.34109,-0.11131 -0.49868,-0.12248 -0.50244,-0.0503 0,0 0,0 0,0 0,0 0,0 0,0 0,0 0,0 0,0 0,0 0,0 0,0 0,0 0,0 0,0 0,0 0,0 0,0 -9e-5,0.002 -9e-5,0.004 0,0.005 0,0 0,0 0,0 0,0 0,0 0,0 0,0 0,0 0,0 0,0 0,0 0,0 0,0 0,0 0,0 0,0 0,0 0,0 0,0 0,0 0,0 0,0 0,0 0,0 0,0 0,0 0,0 0,0 0,0 0,0 0,0 0,0 0,0 0,0 0,0 0,0 0,0 0,0 0,0 0,0 0,0 0,0 0,0 0,0 0,0 0,0 0,0 0,0 0,0 0,0 0,0 0,0 0,0 0,0 0,0 0,0 0,0 0,0 0,0 0,0 0,0 0,0 0,0 0,0 0,0 0,0 0.019,0.38555 3.59005,2.63487 7.69807,4.44674 14.32869,6.38462 32.35696,5.34139 46.52833,-2.66511 z m -121.53741,-5.70416 c 16.79155,5.30032 34.12737,1.82517 46.75837,-9.01961 17.21108,-14.7241 20.94633,-37.57537 20.5178,-60.9589 -0.29686,-14.43814 -1.95362,-29.88282 -2.62635,-32.20002 -0.45895,-1.5199 -1.57375,-1.84253 -2.49725,-0.52965 -0.71905,0.96824 -2.24038,4.0647 -2.94497,6.08921 -0.17632,0.50894 -0.371,1.06108 -0.57398,1.62573 -0.52742,1.3406 -0.94112,2.66639 -1.33918,4.09729 -0.4633,1.66545 -0.44002,1.57444 -0.7896,2.8458 -0.6636,2.41608 -2.03005,7.59644 -3.44092,13.13289 -3.65523,14.27292 -3.90948,15.28733 -6.15558,20.57081 -2.84445,6.68788 -5.00975,10.6828 -9.18256,16.29332 -7.57772,10.20374 -17.59417,16.83316 -28.88713,18.89688 -11.19423,2.04567 -22.84399,-0.64622 -31.84198,-7.8657 -4.38853,-3.52111 -8.96126,-9.04662 -10.26305,-12.08613 -0.75817,-1.74085 -0.1907,2.98722 1.37285,7.98363 4.39635,14.24158 16.45011,26.23654 31.89353,31.12445 z M 543.77865,665.6103 c 8.7556,15.4696 23.54357,23.97179 39.99589,24.26805 22.07437,0.43619 41.2977,-13.13521 57.25598,-29.75835 10.4755,-10.96579 18.99885,-22.35658 20.29042,-25.74407 0.61709,-1.68101 -0.22486,-3.07697 -1.92186,-2.9044 -1.35044,0.0965 -4.57186,1.17845 -6.55005,2.20059 -0.48143,0.24976 -1.01002,0.5206 -1.54949,0.79329 -1.31724,0.61042 -2.54007,1.31175 -3.8057,2.09756 -1.40476,0.87221 -1.47231,0.91214 -2.52364,1.57066 -2.15862,1.35305 -6.64832,4.24146 -11.47639,7.40837 -12.4243,8.12733 -13.26622,8.67848 -18.5456,11.08402 -6.67757,3.04126 -10.94564,4.53306 -17.84657,5.91801 -12.48135,2.51409 -24.31377,0.84102 -33.98586,-5.27999 -9.59247,-6.07062 -16.40683,-16.24736 -18.20195,-28.39913 -0.87446,-5.91947 -0.51924,-13.61096 0.60159,-16.97856 0.11075,-0.33938 0.12237,-0.49709 0.0514,-0.50238 0,0 0,0 0,0 0,0 0,0 0,0 0,0 0,0 0,0 0,0 -10e-6,0 -10e-6,0 0,0 0,0 0,0 0,0 0,0 0,0 -0.002,-1.8e-4 -0.005,-1.8e-4 -0.008,0 0,0 0,0 0,0 0,0 0,0 0,0 0,0 0,0 0,0 0,0 0,0 0,0 0,0 0,0 0,0 0,0 0,0 0,0 0,0 0,0 0,0 0,0 0,0 0,0 0,0 0,0 0,0 0,0 0,0 0,0 0,0 0,0 0,0 0,0 0,0 0,0 0,0 0,0 0,0 0,0 0,0 0,0 0,0 0,0 0,0 0,0 0,0 0,0 0,0 0,0 0,0 0,0 0,0 0,0 0,0 0,0 0,0 0,0 0,0 0,0 0,0 0,0 0,0 -0.38935,0.0268 -2.63544,3.5939 -4.44559,7.698 -6.38462,14.32868 -5.34139,32.35696 2.6651,46.52833 z m 5.70421,-121.5374 c -5.30032,16.79154 -1.82518,34.12736 9.01959,46.75837 14.7241,17.21108 37.57536,20.94635 60.95889,20.51783 14.43814,-0.29685 29.88282,-1.9536 32.20003,-2.62633 1.51989,-0.45895 1.84252,-1.57375 0.52965,-2.49726 -0.96824,-0.71905 -4.0647,-2.24038 -6.08921,-2.94497 -0.50894,-0.17632 -1.06108,-0.371 -1.62573,-0.57398 -1.34061,-0.52741 -2.66639,-0.94112 -4.09729,-1.33918 -1.66545,-0.4633 -1.57444,-0.44002 -2.8458,-0.7896 -2.41609,-0.6636 -7.59644,-2.03005 -13.13289,-3.44092 -14.27292,-3.65524 -15.28733,-3.9095 -20.57081,-6.1556 -6.68788,-2.84445 -10.6828,-5.00975 -16.29331,-9.18256 -10.20374,-7.57773 -16.83316,-17.59418 -18.89687,-28.88714 -2.04566,-11.19423 0.64623,-22.84399 7.86572,-31.84198 3.52111,-4.38853 9.04662,-8.96125 12.08613,-10.26304 1.74084,-0.75818 -2.98722,-0.1907 -7.98364,1.37284 -14.24157,4.39635 -26.23654,16.4501 -31.12446,31.89352 z m 86.11168,-78.73111 c -15.46961,8.7556 -23.97181,23.54357 -24.26807,39.99588 -0.4362,22.07438 13.13519,41.29771 29.75832,57.256 10.9658,10.47551 22.35658,18.99886 25.74406,20.29043 1.68102,0.61709 3.07698,-0.22486 2.90441,-1.92186 -0.0965,-1.35044 -1.17845,-4.57186 -2.20059,-6.55005 -0.24976,-0.48143 -0.5206,-1.01002 -0.79329,-1.54949 -0.61042,-1.31724 -1.31174,-2.54007 -2.09756,-3.8057 -0.8722,-1.40477 -0.91214,-1.47231 -1.57066,-2.52364 -1.35304,-2.15862 -4.24145,-6.64833 -7.40837,-11.47639 -8.12732,-12.42431 -8.67847,-13.26623 -11.08401,-18.54561 -3.04125,-6.67757 -4.53305,-10.94564 -5.918,-17.84657 -2.51408,-12.48135 -0.84101,-24.31377 5.28001,-33.98586 6.07062,-9.59247 16.24737,-16.40682 28.39914,-18.20194 5.91947,-0.87446 13.61096,-0.51923 16.97856,0.6016 0.33807,0.11032 0.49585,0.12227 0.50231,0.0522 0,0 0,0 0,0 0,0 0,0 0,0 2.8e-4,-0.003 2.7e-4,-0.006 0,-0.009 0,0 0,0 0,0 -0.0328,-0.39224 -3.59682,-2.63587 -7.69793,-4.44469 -14.32868,-6.38463 -32.35696,-5.34141 -46.52833,2.66507 z m 121.5374,5.70428 c -16.79154,-5.30034 -34.12736,-1.82521 -46.75837,9.01957 -17.2111,14.72408 -20.94638,37.57534 -20.51786,60.95887 0.29683,14.43814 1.95358,29.88282 2.62631,32.20003 0.45894,1.5199 1.57375,1.84253 2.49725,0.52965 0.71906,-0.96824 2.24039,-4.06469 2.94498,-6.0892 0.17632,-0.50894 0.371,-1.06108 0.57398,-1.62574 0.52742,-1.3406 0.94112,-2.66639 1.33918,-4.09729 0.4633,-1.66544 0.44002,-1.57443 0.78961,-2.84579 0.66359,-2.41609 2.03005,-7.59645 3.44092,-13.13289 3.65525,-14.27292 3.9095,-15.28733 6.15561,-20.57081 2.84445,-6.68788 5.00975,-10.68279 9.18257,-16.29331 7.57773,-10.20373 17.59419,-16.83314 28.88715,-18.89685 11.19423,-2.04566 22.84398,0.64623 31.84197,7.86573 4.38853,3.52111 8.96125,9.04662 10.26304,12.08614 0.75817,1.74084 0.1907,-2.98722 -1.37284,-7.98364 -4.39634,-14.24158 -16.45009,-26.23655 -31.8935,-31.12447 z m 78.73107,86.1117 c -8.7556,-15.46961 -23.54356,-23.97181 -39.99588,-24.26808 -22.07437,-0.43621 -41.29771,13.13517 -57.25601,29.7583 -10.4755,10.96579 -18.99886,22.35656 -20.29043,25.74405 -0.6171,1.68102 0.22485,3.07698 1.92186,2.90441 1.35043,-0.0965 4.57186,-1.17846 6.55004,-2.20059 0.48143,-0.24976 1.01003,-0.5206 1.54949,-0.79329 1.31725,-0.61042 2.54008,-1.31174 3.80571,-2.09756 1.40476,-0.8722 1.47231,-0.91214 2.52364,-1.57066 2.15862,-1.35304 6.64833,-4.24144 11.47639,-7.40836 12.42431,-8.12731 13.26623,-8.67847 18.54562,-11.084 6.67756,-3.04125 10.94564,-4.53305 17.84657,-5.91799 12.48135,-2.51408 24.31377,-0.84101 33.98586,5.28002 9.59246,6.07063 16.40681,16.24738 18.20193,28.39915 0.87445,5.91947 0.51922,13.61096 -0.60161,16.97856 -0.63733,1.95303 2.19269,-2.18679 4.40187,-7.19562 6.38463,-14.32868 5.34142,-32.35696 -2.66505,-46.52834 z"
         sodipodi:ry="97.221321"
         sodipodi:rx="97.221321"
         sodipodi:cy="611.38397"
         sodipodi:cx="689.8208"
         sodipodi:type="arc"
         inkscape:path-effect="#path-effect1105"
         id="path909"
         style="fill:url(#radialGradient2846);fill-opacity:1;stroke-width:0.601743" />
      <path
         d="m 838.85006,683.25218 c 5.57406,-17.33552 2.24263,-35.18246 -8.5304,-48.23206 -14.60546,-17.75652 -37.54107,-21.79505 -60.88895,-21.33057 -14.74099,0.32892 -29.57841,2.16726 -32.22518,3.1122 -1.53074,0.5672 -1.88343,1.9036 -0.59433,2.93292 0.97169,0.82187 3.99977,2.43498 6.0391,3.17418 0.50687,0.18281 1.05812,0.38517 1.62044,0.59558 1.33309,0.55026 2.66015,0.97324 4.08844,1.37437 1.62234,0.45563 1.61549,0.45573 2.84416,0.79602 2.42705,0.67136 7.5825,2.03385 13.13144,3.44653 14.28335,3.65588 15.27749,3.90693 20.55778,6.20513 6.6849,2.91095 10.63868,5.11631 16.22681,9.4095 10.13759,7.77647 16.66722,18.08378 18.56173,29.70271 1.87899,11.52371 -1.03605,23.52798 -8.53447,32.87018 -3.66089,4.56108 -9.3631,9.32718 -12.49386,10.71703 -1.78563,0.80541 3.04009,0.13743 8.15657,-1.5542 14.57548,-4.75776 26.89961,-17.2714 32.04072,-33.21952 z m -89.19038,81.55722 c 16.03447,-8.97664 24.98945,-24.05323 25.62583,-40.762 0.89271,-22.39772 -12.51268,-41.88007 -29.1414,-57.79376 -11.05457,-10.52337 -22.44001,-18.77695 -26.10229,-19.96033 -1.76587,-0.54503 -3.33514,0.43343 -3.25242,2.19593 0.0217,1.41725 1.00437,4.68258 2.00702,6.6853 0.24383,0.48481 0.50874,1.01853 0.77466,1.5619 0.58976,1.32975 1.28487,2.55901 2.06708,3.82581 0.85668,1.38738 0.9207,1.49426 1.56509,2.52728 1.35398,2.16888 4.23045,6.64463 7.40349,11.47958 8.13392,12.43079 8.67359,13.2587 11.04071,18.57355 2.99365,6.72482 4.42837,10.99509 5.7151,17.9705 2.33108,12.58481 0.38816,24.56774 -6.07533,34.36933 -6.41342,9.72564 -16.99203,16.65338 -29.58007,18.50582 -6.14125,0.90374 -14.08814,0.5628 -17.58599,-0.56044 -0.35409,-0.11149 -0.51732,-0.1225 -0.52057,-0.0498 0,0 0,0 0,0 0,0 0,0 0,0 0,0 0,0 0,0 0,0 0,0 0,0 0,0 0,0 0,0 0,0 0,0 0,0 0,0 0,0 0,0 0,0 0,0 0,0 0,0 0,0 0,0 0,0 0,0 0,0 0,0 0,0 0,0 0,0 0,0 0,0 0,0 0,0 0,0 0,0 0,0 0,0 0,0 0,0 0,0 0,10e-6 0,10e-6 0,10e-6 0,0 0,0 0,0 0,0 0,0 0,0 0,0 0,0 0,0 0,0 0,0 0,0 0,0 0,0 0,0 -3e-5,0.001 -3e-5,0.003 0,0.005 0,0 0,0 0,0 0,0 0,0 0,0 0,0 0,0 0,0 0.0156,0.36467 3.74027,2.64465 7.96676,4.43959 14.82087,6.35917 33.39529,5.20084 48.09233,-3.01275 z m -125.65947,-5.90809 c 17.33552,5.57406 35.18247,2.24264 48.23207,-8.53039 17.75652,-14.60546 21.79506,-37.54106 21.33059,-60.88894 -0.32891,-14.74099 -2.16725,-29.57841 -3.11219,-32.22518 -0.5672,-1.53074 -1.9036,-1.88343 -2.93292,-0.59433 -0.82188,0.97168 -2.43498,3.99977 -3.17418,6.0391 -0.18281,0.50686 -0.38517,1.05812 -0.59558,1.62043 -0.55026,1.3331 -0.97324,2.66015 -1.37438,4.08844 -0.45562,1.62234 -0.45573,1.6155 -0.79602,2.84416 -0.67136,2.42705 -2.03385,7.5825 -3.44653,13.13144 -3.65588,14.28335 -3.90694,15.27749 -6.20514,20.55778 -2.91095,6.6849 -5.11631,10.63868 -9.4095,16.22681 -7.77648,10.13759 -18.08379,16.66721 -29.70272,18.56172 -11.5237,1.87899 -23.52797,-1.03606 -32.87018,-8.53448 -4.56107,-3.66089 -9.32717,-9.3631 -10.71702,-12.49386 -0.80541,-1.78563 -0.13743,3.04008 1.55419,8.15657 4.75776,14.57548 17.27139,26.89961 33.21951,32.04073 z M 542.44302,669.7109 c 8.97664,16.03448 24.05323,24.98946 40.762,25.62585 22.39772,0.89272 41.88007,-12.51267 57.79377,-29.14139 10.52337,-11.05456 18.77695,-22.44 19.96033,-26.10228 0.54503,-1.76587 -0.43342,-3.33514 -2.19592,-3.25242 -1.41726,0.0217 -4.68259,1.00437 -6.68531,2.00701 -0.48481,0.24383 -1.01853,0.50875 -1.5619,0.77467 -1.32974,0.58975 -2.55901,1.28486 -3.8258,2.06707 -1.38738,0.85668 -1.49427,0.9207 -2.52729,1.56509 -2.16888,1.35398 -6.64464,4.23045 -11.47958,7.40349 -12.43079,8.13392 -13.2587,8.67358 -18.57356,11.04071 -6.72482,2.99364 -10.99509,4.42837 -17.97049,5.71509 -12.58482,2.33107 -24.56775,0.38815 -34.36933,-6.07535 -9.72565,-6.41341 -16.65338,-16.99203 -18.50582,-29.58007 -0.90373,-6.14124 -0.56279,-14.08814 0.56045,-17.58599 0.11102,-0.35261 0.1224,-0.51595 0.0507,-0.52052 0,0 0,0 0,0 0,0 0,0 0,0 0,0 0,0 0,0 0,0 0,0 0,0 0,0 0,0 0,0 0,0 0,0 0,0 0,0 0,0 0,0 0,0 0,0 0,0 0,0 0,0 0,0 0,0 0,0 0,0 0,0 0,0 0,0 0,0 0,0 0,0 0,0 0,0 0,0 0,0 0,0 0,0 0,0 0,0 0,0 0,0 0,0 0,0 0,0 0,0 0,0 0,0 0,0 0,0 0,0 0,0 0,0 0,0 0,0 0,0 0,0 0,0 0,0 0,0 0,0 0,0 0,0 0,0 0,0 0,0 0,0 0,0 0,0 0,0 0,0 0,0 0,0 0,0 0,0 0,0 0,0 -0.002,-1.4e-4 -0.004,-1.4e-4 -0.006,0 0,0 0,0 0,0 0,0 0,0 0,0 0,0 0,0 0,0 -0.38718,0.0231 -2.63572,3.72144 -4.43863,7.96671 -6.35917,14.82087 -5.20085,33.39529 3.01273,48.09233 z m 5.90813,-125.65946 c -5.57406,17.33552 -2.24265,35.18246 8.53038,48.23207 14.60545,17.75652 37.54105,21.79507 60.88893,21.3306 14.74099,-0.3289 29.57841,-2.16723 32.22518,-3.11218 1.53074,-0.56719 1.88344,-1.90359 0.59434,-2.93291 -0.97169,-0.82188 -3.99977,-2.43498 -6.0391,-3.17419 -0.50687,-0.18281 -1.05812,-0.38517 -1.62044,-0.59558 -1.33309,-0.55026 -2.66015,-0.97324 -4.08844,-1.37437 -1.62234,-0.45563 -1.61549,-0.45574 -2.84416,-0.79603 -2.42705,-0.67136 -7.5825,-2.03385 -13.13144,-3.44653 -14.28334,-3.65589 -15.27748,-3.90694 -20.55777,-6.20515 -6.6849,-2.91095 -10.63868,-5.11631 -16.22681,-9.4095 -10.13758,-7.77649 -16.6672,-18.08379 -18.56171,-29.70273 -1.87899,-11.5237 1.03606,-23.52797 8.53449,-32.87018 3.66089,-4.56106 9.3631,-9.32716 12.49386,-10.71701 1.78564,-0.80541 -3.04008,-0.13743 -8.15657,1.55419 -14.57547,4.75775 -26.89961,17.27138 -32.04074,33.2195 z m 89.19044,-81.55717 c -16.03449,8.97663 -24.98947,24.05322 -25.62586,40.76199 -0.89273,22.39772 12.51265,41.88008 29.14136,57.79378 11.05457,10.52338 22.44001,18.77696 26.10228,19.96034 1.76587,0.54503 3.33514,-0.43342 3.25242,-2.19592 -0.0217,-1.41726 -1.00436,-4.68259 -2.00701,-6.68531 -0.24383,-0.48481 -0.50874,-1.01853 -0.77466,-1.5619 -0.58976,-1.32975 -1.28486,-2.55901 -2.06708,-3.82581 -0.85668,-1.38738 -0.92069,-1.49426 -1.56508,-2.52728 -1.35398,-2.16888 -4.23045,-6.64464 -7.40349,-11.47958 -8.13391,-12.4308 -8.67358,-13.25871 -11.0407,-18.57356 -2.99364,-6.72483 -4.42837,-10.9951 -5.71509,-17.9705 -2.33107,-12.58482 -0.38814,-24.56775 6.07536,-34.36933 6.41342,-9.72564 16.99204,-16.65337 29.58008,-18.5058 6.14124,-0.90374 14.08814,-0.5628 17.58599,0.56045 0.35148,0.11066 0.51489,0.12233 0.52048,0.0514 0,0 0,0 0,0 0,0 0,0 0,0 1.9e-4,-0.002 1.9e-4,-0.005 0,-0.008 0,0 0,0 0,0 0,0 0,0 0,0 0,0 0,0 0,0 0,0 0,0 0,0 0,0 0,0 0,0 0,0 0,0 0,0 0,0 0,0 0,0 0,0 0,0 0,0 0,0 0,0 0,0 -0.0283,-0.38961 -3.72398,-2.63608 -7.96667,-4.4379 -14.82087,-6.35917 -33.39529,-5.20086 -48.09233,3.01272 z m 125.65946,5.90818 c -17.33552,-5.57408 -35.18246,-2.24267 -48.23207,8.53036 -17.75653,14.60544 -21.79509,37.54104 -21.33063,60.88892 0.3289,14.74099 2.16723,29.5784 3.11217,32.22518 0.56719,1.53074 1.90359,1.88344 2.93291,0.59434 0.82188,-0.97169 2.43499,-3.99977 3.17419,-6.0391 0.18281,-0.50686 0.38517,-1.05812 0.59558,-1.62043 0.55026,-1.3331 0.97325,-2.66015 1.37438,-4.08845 0.45563,-1.62233 0.45573,-1.61549 0.79602,-2.84415 0.67137,-2.42705 2.03386,-7.5825 3.44654,-13.13144 3.6559,-14.28334 3.90695,-15.27748 6.20515,-20.55778 2.91096,-6.68489 5.11633,-10.63867 9.40952,-16.2268 7.77648,-10.13758 18.08379,-16.6672 29.70273,-18.5617 11.5237,-1.87899 23.52797,1.03607 32.87017,8.5345 4.56107,3.66089 9.32717,9.3631 10.71702,12.49386 0.80541,1.78564 0.13743,-3.04008 -1.55419,-8.15657 -4.75775,-14.57547 -17.27138,-26.89962 -33.21949,-32.04074 z m 81.55714,89.19045 c -8.97663,-16.03448 -24.05321,-24.98947 -40.76198,-25.62587 -22.39772,-0.89273 -41.88009,12.51264 -57.79379,29.14135 -10.52338,11.05456 -18.77697,22.44 -19.96035,26.10227 -0.54503,1.76587 0.43342,3.33514 2.19592,3.25242 1.41726,-0.0217 4.68259,-1.00436 6.68531,-2.007 0.48481,-0.24384 1.01853,-0.50875 1.5619,-0.77467 1.32975,-0.58975 2.55901,-1.28486 3.82581,-2.06707 1.38738,-0.85668 1.49426,-0.9207 2.52729,-1.56509 2.16887,-1.35398 6.64463,-4.23045 11.47958,-7.40348 12.43079,-8.13391 13.2587,-8.67358 18.57356,-11.0407 6.72482,-2.99364 10.9951,-4.42836 17.9705,-5.71508 12.58482,-2.33106 24.56775,-0.38814 34.36933,6.07537 9.72564,6.41342 16.65336,16.99204 18.50579,29.58009 0.90374,6.14124 0.56279,14.08814 -0.56045,17.58598 -0.63523,2.01754 2.1924,-2.26149 4.39428,-7.44618 6.35918,-14.82087 5.20087,-33.39529 -3.0127,-48.09234 z"
         transform="matrix(0.9467274,0,0,0.9467274,33.170148,30.422976)"
         inkscape:path-effect="#path-effect1116"
         sodipodi:cx="693.60059"
         sodipodi:cy="613.65186"
         sodipodi:rx="102.69199"
         sodipodi:ry="102.69199"
         sodipodi:type="arc"
         style="fill:#ffffff;fill-opacity:1;stroke-width:0.635603;filter:url(#filter1206)"
         id="path1114" />
    </g>
  </g>
  <style
     id="style956"
     type="text/css">
	.st0{fill:#666666;}
	.st1{fill:#4D4D4D;}
	.st2{fill:#FF931E;}
	.st3{fill:#FF7300;}
</style>
</svg>
